<?xml version="1.0" encoding="utf-8"?>
<!-- Generator: Adobe Illustrator 22.1.0, SVG Export Plug-In . SVG Version: 6.00 Build 0)  -->
<svg version="1.1" id="Слой_1" xmlns="http://www.w3.org/2000/svg" xmlns:xlink="http://www.w3.org/1999/xlink" x="0px" y="0px"
	 viewBox="0 0 217 267" style="enable-background:new 0 0 217 267;" xml:space="preserve">
<style type="text/css">
	.st0{fill:#C799C6;}
	.st1{fill:#DABEDB;}
	.st2{fill:#769B87;}
</style>
<g>
	<g>
		<path class="st0" d="M766.2-432.3c-30.7-53.4-67.3-103.3-108.9-148.8c-0.6,1.4-1.2,2.8-1.8,4.3c23.2,1.3,38.9,22.3,43.4,43.6
			c5.7,26.8-6.5,54.2-17.5,78c-10.7,23.3-22.6,47.4-23.4,73.5c-0.3,9.3,0.2,19.8,6.6,27.3c4.5,5.3,11.2,8.1,16.8,2.9
			c0.8-0.7,1-2.2,0.4-3c-50-71.8-121-125.8-199.6-163c-86.8-41.1-181.4-61.1-276.5-70c-108.5-10.2-217.7-6.9-326.5-5.8
			c-111.9,1.1-223.8,2.3-335.7,3.4c-56,0.6-111.9,1.1-167.9,1.7c-13.7,0.1-38.5-0.6-40.4,18.3c-0.5,5.1,0.9,10.4,1.7,15.4
			c1.2,6.9,2.3,13.8,3.5,20.7c2.3,13.8,4.7,27.6,7,41.4c2.3,13.3,4.5,26.7,6.8,40c0.5,2.7,5.2,2.1,4.9-0.7c-1-8.6-2.1-17.2-3.1-25.8
			c-0.4-3.2-5.4-3.2-5,0c1,8.6,2.1,17.2,3.1,25.8c1.6-0.2,3.3-0.4,4.9-0.7c-4.4-26.2-8.9-52.4-13.3-78.6c-1.1-6.4-2.2-12.9-3.3-19.3
			c-1.1-6.7-4.4-15.8-0.9-22.2c4.5-8.4,17.3-9,25.5-9.1c54-1.2,108.1-1.1,162.2-1.7c108.1-1.1,216.2-2.2,324.4-3.3
			c105-1.1,210.5-4.4,315.4,2.6c96,6.4,192.2,22.5,281.5,59.4c79.1,32.7,152.8,81.3,207.4,148c6.9,8.5,13.5,17.2,19.7,26.2
			c0.1-1,0.3-2,0.4-3c-6.4,6-12.9-7.1-13.9-11.7c-1.4-6.4-1.2-13.6-0.6-20.1c1.2-13.8,5.6-27.2,10.8-40c9.4-23.1,22.3-45,28.1-69.5
			c4.6-19.4,4.1-39.5-5.7-57.3c-8.5-15.5-23-27.1-41.1-28.1c-2.3-0.1-3.1,2.8-1.8,4.3c41.3,45.2,77.5,94.7,108.1,147.8
			C763.5-427,767.8-429.5,766.2-432.3L766.2-432.3z"/>
	</g>
</g>
<g>
	<path class="st1" d="M59.1,94.3c-8-2.8-14.7-9.6-16.5-17.9s2.1-17.7,9.6-21.6c8-4.1,18.1-1.4,25.2,4.2c7,5.6,11.6,13.6,16,21.5
		C90.3,68.4,95.2,54.2,106,48c2.9-1.7,6.3-2.8,9.7-2.2c6.5,1.1,10.4,8.3,11.1,14.9s-0.8,13.3,0,19.9c3.7-6.8,8.3-13.1,13.7-18.6
		c3.3-3.3,7-6.5,11.4-8c4.4-1.5,9.8-1.1,13.3,2.1c4.6,4.1,4.5,11.5,2.4,17.2c-2.1,5.8-6,10.8-8.1,16.6c-0.3,0.8-0.5,1.6-0.4,2.4
		c0.2,1.2,1.1,2.1,1.9,3c6.9,7.4,10,17.5,11.4,27.5c3.1,21.5-1.1,44.3-13.5,62.1c-5.9,8.6-14,16.1-24.1,18.9
		c-6.4,1.8-13.2,1.5-19.8,0.6c-9.1-1.2-18.2-3.6-26.4-7.7c-17.6-8.9-30.7-25.8-36.1-44.8s-3.2-39.8,4.6-57.9"/>
	<g>
		<path class="st1" d="M59.7,91.9c-7.1-2.7-13.2-8.5-14.7-16.1c-1.5-7.6,2.2-16.2,9.5-19.2c17.3-7.1,29.8,12.9,36.7,25.2
			c1.4,2.5,5.2,0.8,4.6-1.9c-2.6-11.3,1.7-25.4,12.9-30.5c7.7-3.5,13.5,1.9,15.1,9.3c1.6,7.1-0.3,14.7,0.4,21.9
			c0.2,2.3,3.4,3.6,4.7,1.3c5.1-9.3,13.8-23.2,25-25.8c7.6-1.8,13,3.4,12.5,10.9c-0.4,6.3-4.3,11.6-7.1,17.1
			c-1.7,3.5-4,7.4-1.7,11.1c1.3,2.1,3.2,3.7,4.6,5.7c1.8,2.7,3.2,5.6,4.4,8.6c4.1,11,4.9,23.4,3.9,35c-1.9,22-13.9,52.1-38.1,57.3
			c-12.8,2.8-28.5-0.9-40.2-6.2c-10.3-4.7-19.2-12.1-25.9-21.2c-16.8-22.9-17.9-53.4-7-79.1c1.2-2.9-3.1-5.5-4.3-2.5
			c-10.8,25.4-11.1,55.1,3.6,79.1c14.1,23,40.3,36.6,67.3,35.7c28-0.9,44.4-30.3,48.5-54.9c2.2-13.1,2-27-1.6-39.8
			c-1.7-6-4.2-11.8-8.1-16.7c-1.2-1.5-3-3.2-2.9-5.4c0.1-1.7,1.8-4,2.6-5.5c1.7-3.2,3.5-6.2,4.9-9.6c4.6-11.2,0.5-26.1-14-24.8
			c-14,1.3-24.6,17.4-30.7,28.6c1.6,0.4,3.1,0.8,4.7,1.3c-0.8-9.2,1.9-19-2.1-27.7c-3.1-6.8-9.6-11.1-17.1-9.2
			c-15.8,4.1-22.4,23.1-19,37.6c1.5-0.6,3-1.3,4.6-1.9c-5.3-9.4-11.1-19.4-20.7-24.9c-8-4.6-18.7-5.8-26.4,0
			c-6.9,5.2-10,14.5-8.2,22.8c2,9.4,9.5,16.3,18.2,19.6C61.4,97.8,62.7,93,59.7,91.9L59.7,91.9z"/>
	</g>
</g>
<g>
	<path class="st2" d="M77,192.8c-4.4,0.1-8.8,1.2-12.7,3.3c-1.1,0.6-2.2,1.2-2.8,2.3c-0.6,1-0.6,2.3-0.4,3.4c1.2,8,9,13.2,16.4,16.4
		c12.4,5.3,26.2,7.7,39.5,5.6c13.3-2.2,26-9.2,33.8-20.2c3.4-4.8,5.4-12.2,0.8-15.8c-1.3-1-3-1.5-4.6-1.9
		c-11.4-2.2-22.6,3.4-34.1,5.3c-16.1,2.6-33.3-2.2-48.4,3.9"/>
	<g>
		<path class="st2" d="M77,190.3c-5.6,0.3-16.6,1.8-18.3,8.5c-1.6,6.2,3.7,12.7,8.2,16.2c13,10.2,33.1,13.7,49.1,11.5
			c15-2.1,32.6-10.8,39.1-25.3c2.3-5.1,2.9-11.9-2.2-15.6c-6.5-4.8-17.2-2.6-24.4-0.8c-5.4,1.3-10.7,3.1-16.2,4
			c-5.6,0.9-11.2,0.8-16.8,0.7c-10.7-0.2-21.4-0.6-31.5,3.2c-3,1.1-1.7,6,1.3,4.8c16.6-6.2,34.7-0.8,51.8-4.5
			c8.7-1.9,17.5-5.7,26.6-5c14.5,1.1,5.9,14.5-0.1,20.3c-13,12.5-32.1,16-49.4,12.5c-8.3-1.6-17.2-4.3-24-9.5
			c-2.7-2-7.6-6.7-6.7-10.6c1-4.3,9.9-5.1,13.4-5.3C80.2,195.1,80.2,190.1,77,190.3L77,190.3z"/>
	</g>
</g>
</svg>
