<?xml version="1.0" encoding="utf-8"?>
<!-- Generator: Adobe Illustrator 22.1.0, SVG Export Plug-In . SVG Version: 6.00 Build 0)  -->
<svg version="1.1" id="Слой_1" xmlns="http://www.w3.org/2000/svg" xmlns:xlink="http://www.w3.org/1999/xlink" x="0px" y="0px"
	 viewBox="0 0 217 267" style="enable-background:new 0 0 217 267;" xml:space="preserve">
<style type="text/css">
	.st0{fill:#C799C6;}
	.st1{fill:#769B87;}
	.st2{fill:#F38DBA;}
	.st3{fill:#FFFFFF;}
</style>
<g>
	<g>
		<path class="st0" d="M766.2-432.3c-30.7-53.4-67.3-103.3-108.9-148.8c-0.6,1.4-1.2,2.8-1.8,4.3c23.2,1.3,38.9,22.3,43.4,43.6
			c5.7,26.8-6.5,54.2-17.5,78c-10.7,23.3-22.6,47.4-23.4,73.5c-0.3,9.3,0.2,19.8,6.6,27.3c4.5,5.3,11.2,8.1,16.8,2.9
			c0.8-0.7,1-2.2,0.4-3c-50-71.8-121-125.8-199.6-163c-86.8-41.1-181.4-61.1-276.5-70c-108.5-10.2-217.7-6.9-326.5-5.8
			c-111.9,1.1-223.8,2.3-335.7,3.4c-56,0.6-111.9,1.1-167.9,1.7c-13.7,0.1-38.5-0.6-40.4,18.3c-0.5,5.1,0.9,10.4,1.7,15.4
			c1.2,6.9,2.3,13.8,3.5,20.7c2.3,13.8,4.7,27.6,7,41.4c2.3,13.3,4.5,26.7,6.8,40c0.5,2.7,5.2,2.1,4.9-0.7c-1-8.6-2.1-17.2-3.1-25.8
			c-0.4-3.2-5.4-3.2-5,0c1,8.6,2.1,17.2,3.1,25.8c1.6-0.2,3.3-0.4,4.9-0.7c-4.4-26.2-8.9-52.4-13.3-78.6c-1.1-6.4-2.2-12.9-3.3-19.3
			c-1.1-6.7-4.4-15.8-0.9-22.2c4.5-8.4,17.3-9,25.5-9.1c54-1.2,108.1-1.1,162.2-1.7c108.1-1.1,216.2-2.2,324.4-3.3
			c105-1.1,210.5-4.4,315.4,2.6c96,6.4,192.2,22.5,281.5,59.4c79.1,32.7,152.8,81.3,207.4,148c6.9,8.5,13.5,17.2,19.7,26.2
			c0.1-1,0.3-2,0.4-3c-6.4,6-12.9-7.1-13.9-11.7c-1.4-6.4-1.2-13.6-0.6-20.1c1.2-13.8,5.6-27.2,10.8-40c9.4-23.1,22.3-45,28.1-69.5
			c4.6-19.4,4.1-39.5-5.7-57.3c-8.5-15.5-23-27.1-41.1-28.1c-2.3-0.1-3.1,2.8-1.8,4.3c41.3,45.2,77.5,94.7,108.1,147.8
			C763.5-427,767.8-429.5,766.2-432.3L766.2-432.3z"/>
	</g>
</g>
<g>
	<g>
		<path class="st1" d="M-117.5-141.5c3.2,0,3.2-5,0-5C-120.7-146.5-120.7-141.5-117.5-141.5L-117.5-141.5z"/>
	</g>
</g>
<g id="Слой_2">
	<g>
		<path class="st2" d="M92.9,100.3c-0.8-6.6-6.4-11.5-12.3-14.6C62,75.8,32.2,80,27.3,103.8c-1.5,7.5-0.4,15.3,1.5,22.6
			c0.9,3.5,2.1,7,3.7,10.3c1.4,2.9,3.2,5.7,5,8.4c2.2,3.4,4.5,6.9,6.7,10.3c6.6,10.1,17.3,17.6,27.5,24c8.1,5,16.4,9.6,24.9,13.8
			c0.4,0.2,0.9,0.4,1.4,0.4c0.4-0.1,0.8-0.4,1.1-0.6c18-14.8,35.2-31.1,47.9-50.7c5.9-9.2,10.9-19.3,11.8-30.2s-3-22.6-11.9-28.9
			c-5.6-4-12.6-5.5-19.4-6.2c-4.5-0.5-9.2-0.6-13.6,0.4c-11.2,2.5-20.2,12.6-21.5,24"/>
		<g>
			<path class="st2" d="M95.3,99.6C93.3,87.5,79.6,80.9,68.6,79c-10.3-1.8-21.6-0.7-30.6,5.1c-10.4,6.7-14.7,18.2-13.9,30.2
				c1.1,17,9.7,31.6,19.6,45c9.5,12.8,24.4,21.4,38.1,29.1c3.9,2.2,7.8,4.2,11.8,6.2c2.6,1.3,4.4,2.1,7,0.4
				c6.9-4.7,13.3-11.2,19.3-17c12.1-11.5,23.4-24.4,31.9-38.8c7.6-12.9,12.6-28.5,7.3-43.2c-5.8-15.9-21-21.5-36.9-21.8
				c-15.9-0.3-30.2,10.3-32.4,26.5c-0.4,3.1,4.4,4.5,4.8,1.3c2-14.1,13.6-23.1,27.6-22.8c13.4,0.3,27,4.5,32,18.1
				c9.6,25.8-14.5,53.4-31,70.4c-4.9,5-10,9.8-15.3,14.5c-2.2,1.9-4.4,3.8-6.6,5.7c-1.7,1.5-2.6,2.9-5.2,2.4
				c-2.1-0.4-4.8-2.5-6.8-3.5c-11.9-6.3-24.1-13.2-34.1-22.3c-4.8-4.4-8.3-9.3-11.8-14.7c-3.9-6-8.2-11.9-10.6-18.8
				c-4.1-11.4-6.5-26.1,1.2-36.5c6.2-8.4,17.1-11.5,27.1-11.3c10.9,0.3,27.2,5.3,29.4,17.8C91.1,104.1,95.9,102.8,95.3,99.6
				L95.3,99.6z"/>
		</g>
	</g>
	<g>
		<g>
			<path class="st2" d="M62.6,101.1c-2.3,4.5-3.9,9.2-5.6,13.9c-0.9,2.5-1.8,5-2.8,7.4c-0.2,0.5-6.3,12.4-7.8,8.2
				c-0.5-1.5-2.9-0.9-2.4,0.7c2.2,6.4,8,0.5,9.9-2.7c4.8-8.2,6.5-17.8,10.8-26.2C65.5,100.9,63.4,99.7,62.6,101.1L62.6,101.1z"/>
		</g>
	</g>
	<g>
		<g>
			<path class="st3" d="M66.2,97.4c-4.5,5.3-8.2,11.1-10.9,17.5c-1.3,3.1-2.1,6.3-3.3,9.3c-0.5,1.7-1.3,3.2-2.6,4.4
				c-3.4,0.9-5.2-0.1-5.6-3.1c-0.9-3.4-0.4-7.4,3.5-8.5c5.6-1.5,9.2,4,10.4,8.6c0.4,1.5,0.5,3.4,2.1,4.3c4,2.3,7.3-3.6,8.1-6.4
				c-0.8-0.1-1.6-0.2-2.5-0.3c0.2,2.6-0.8,6.9,2.9,7.3c2.8,0.4,4.3-2.5,4.9-4.8c2.2-7.6-5.6-9.7-7.7-2.1c-0.4,1.6,2,2.2,2.4,0.7
				c1,0.3,1.9,0.5,2.9,0.8c0,1.8-0.6,2.3-1.8,1.3c-1.6-0.8-1-1.4-1.2-3.2c-0.1-1.4-2.1-1.8-2.5-0.3c-0.6,2.1-2.6,5.7-5.1,3.4
				c-0.4-0.4-0.7-2.9-0.9-3.3c-0.5-1.5-1.3-3-2.3-4.2c-1.9-2.5-4.6-4.2-7.8-4.3c-7.8-0.3-10,7.1-7.5,13.4c0.8,2,1.8,4.6,4.2,5
				c2.6,0.4,5.2-2.1,6.5-4c2.8-4.2,3.5-9.8,5.6-14.3c2.5-5.5,5.8-10.5,9.7-15.1C69,98,67.2,96.2,66.2,97.4L66.2,97.4z"/>
		</g>
	</g>
	<g>
		<g>
			<path class="st3" d="M74.6,119.5c0,2.3,0.2,4.6,0.7,6.8c0.3,1.3,0.7,3.2,2.4,3.1c1.6,0,2.8-2.2,3.5-3.4c1-1.8,1.7-3.7,2-5.7
				c0.2-1.6-2.2-2.3-2.4-0.7c-0.2,1.4-0.6,2.8-1.2,4.1c-0.5,0.9-1.3,3-2.4,3.2c0.3,0,0.6,0.1,1,0.1c-0.6-0.3-0.8-3.1-0.8-3.7
				c-0.2-1.3-0.2-2.6-0.2-3.9C77.1,117.9,74.6,117.9,74.6,119.5L74.6,119.5z"/>
		</g>
	</g>
	<g>
		<g>
			<path class="st3" d="M83.4,126.2c3.3,1.7,6.8-0.5,7.5-4c0.3-1.5,0.2-3-1.2-3.9c-1.4-0.9-3.2-0.8-4.6,0c-2.7,1.5-4.1,6.1-2.5,8.8
				c2.1,3.6,8.4,1.6,11.3,0.3c1.5-0.7,0.2-2.8-1.3-2.2c-1.7,0.8-3.6,1.2-5.5,1.2c-1.2,0-2.2,0-2.5-1.4c-0.2-0.7,0-1.6,0.2-2.2
				c0.2-0.7,0.5-1.4,1-1.9c1-1,2.6-1.2,2.8,0.4c0.3,2-2.1,3.6-3.8,2.8C83.3,123.4,82,125.5,83.4,126.2L83.4,126.2z"/>
		</g>
	</g>
	<g>
		<g>
			<path class="st3" d="M100.7,142.2c0.1-1.8,1.1-4.7-0.7-5.9c-1.3-0.8-3.6-0.8-4.8,0.2c-1.6,1.3-2.2,4.7-2.2,6.7
				c0,1.1,0.2,1.7,1.1,2.4c0.3,0.2,0.7,0.4,1,0.6c0.3,0.1,0.6,0.3,0.9,0.4c1.7,0.5,1.6,1.9-0.3,4.2c-1.6,0.2-1.6,2.7,0,2.5
				c3.5-0.4,6-3.9,3.8-7.1c-0.4-0.7-1-1.1-1.7-1.5c-0.3-0.2-0.7-0.3-1.1-0.5c-1.4-0.9-1.4-1.2-1.1-2.8c0.1-0.6,0.2-1.6,0.6-2.1
				c0.3-0.6,1.7-1.4,2.2-0.8c0.2,0.2-0.3,3.2-0.3,3.8C98.1,143.8,100.6,143.8,100.7,142.2L100.7,142.2z"/>
		</g>
	</g>
	<g>
		<g>
			<path class="st3" d="M100.8,151.9c3-0.5,6.1-2.4,7.3-5.3c1-2.3-0.5-6-3.5-4.7c-1.4,0.6-2.1,2.3-2.7,3.6c-0.7,1.6-1.5,3.4-1.6,5.1
				c-0.2,3.9,4,4,6.7,3.1c1.5-0.5,0.9-2.9-0.7-2.4c-1.9,0.6-4,1-3.3-1.6c0.3-1.1,0.8-3.7,1.8-4.5c0.1-0.6,0.4-0.7,0.7-0.2
				c0.6,0.2,0.6,0.6,0,1.1c-0.3,0.6-0.8,1.1-1.3,1.5c-1.2,1-2.6,1.6-4.1,1.8C98.6,149.7,99.3,152.2,100.8,151.9L100.8,151.9z"/>
		</g>
	</g>
	<g>
		<g>
			<path class="st3" d="M111.5,149.2c4.1-4.3,5.1-9.9,5.9-15.6c0.1-0.8-0.3-1.6-1.2-1.6c-5.4,0.2-5.6,5.9-5.8,10.1
				c-0.1,3.6-0.9,10.5,4.6,10c1.6-0.1,1.6-2.6,0-2.5c-1.8,0.1-2.3-2.5-2.3-3.6c0-1.1,0.1-2.2,0.1-3.2c0.1-2.4-0.5-8.2,3.3-8.3
				c-0.4-0.5-0.8-1.1-1.2-1.6c-0.7,5.2-1.5,10.5-5.3,14.5C108.6,148.6,110.3,150.4,111.5,149.2L111.5,149.2z"/>
		</g>
	</g>
	<g>
		<g>
			<path class="st3" d="M112.9,160c4.3,1.1,6.5-3.7,7.6-7.1c0.9-3.1,1.2-6.4,1.9-9.5c0.4-1.6,0.6-3.6,1.4-5.1c0.2-1.9,1.4-3,3.6-3.2
				c-0.1,1.3-0.4,2.5-0.9,3.6c-0.6,1.5,1.9,2.2,2.4,0.7c0.7-1.9,1.7-5,0.3-6.9c-1.3-1.6-3.6-1.5-5.1-0.3c-4,3.1-4.9,26.8-10.5,25.4
				C112,157.2,111.3,159.6,112.9,160L112.9,160z"/>
		</g>
	</g>
	<g>
		<g>
			<path class="st3" d="M118.2,148c2.5-0.1,5-0.6,7.3-1.5c1.5-0.6,0.8-3-0.7-2.4c-2.2,0.8-4.4,1.3-6.7,1.4
				C116.6,145.6,116.6,148.1,118.2,148L118.2,148z"/>
		</g>
	</g>
	<g>
		<g>
			<path class="st3" d="M112.3,121.4c-1.7-1.3-3.5-2.5-5-4.1c-0.4-0.4-0.7-0.7-1-1.2c-0.2-0.3-0.3-0.6-0.3-1c0.3-0.3,0.7-0.5,1-0.8
				c1.2,0,1.6,2.3,1.9,3.1c0.3,1,1.4,1.1,2.1,0.6c0.6-0.5,2.4-3.7,3.2-3c0.5,0.5-1.3,4.5-1.5,5.1c-0.2,0.5-0.3,0.9-0.5,1.4
				c-0.2,0.5-0.6,0.6-1.1,0.1c-0.7-0.2-1.4-0.9-1.9-1.4c-1.2-1.3-1.8-2.8-1.8-4.5c-0.6,0.4-1.3,0.7-1.9,1.1c1.5,1,2.1,2.3,2.8,4
				c0.4,0.8,1,1.5,1.9,1.6c2.6,0.4,3-3.7,3.5-5.4c-0.8-0.1-1.6-0.2-2.5-0.3c0.1,0.9,0.2,1.8,0.4,2.7c0.2,1.3,2.1,1.8,2.5,0.3
				c0.3-1.1,0.6-2.2,0.9-3.3c0.4-1.6-2-2.2-2.4-0.7c-0.3,1.1-0.6,2.2-0.9,3.3c0.8,0.1,1.6,0.2,2.5,0.3c-0.1-0.9-0.2-1.8-0.4-2.7
				c-0.2-1.3-2-1.8-2.5-0.3c-0.3,0.9-0.9,2.2-1,3.1c-0.1,0.2-0.1,0.4-0.2,0.6c0.4-0.1,0.6-0.3,0.4-0.5c0-0.2-0.3-0.8-0.4-1
				c-0.7-1.6-1.9-2.8-3.3-3.8c-0.8-0.5-1.9,0.2-1.9,1.1c0.1,2.9,1.5,5.6,3.8,7.4c1,0.7,2.8,1.8,4.1,1.5c1.5-0.4,1.8-2.2,2.2-3.4
				c0.7-2.2,3.1-6.5,0.6-8.4c-3-2.2-4.6,2.2-6.3,3.6c0.7,0.2,1.4,0.4,2.1,0.6c-0.5-1.9-1.2-3.9-3.1-4.7c-1.5-0.6-3.4-0.3-4.2,1.2
				c-2.3,4.2,4.1,7.8,6.6,9.8C111.7,124.2,113.5,122.4,112.3,121.4L112.3,121.4z"/>
		</g>
	</g>
	<g>
		<g>
			<path class="st3" d="M106.5,114.5c0.5,3.6,2.2,6.5,5.1,8.6c1.3,0.9,2.6-1.2,1.3-2.2c-2.1-1.5-3.6-3.9-3.9-6.5
				C108.7,112.9,106.2,112.9,106.5,114.5L106.5,114.5z"/>
		</g>
	</g>
	<g>
		<g>
			<path class="st3" d="M104.6,114.7c-0.6,1.5,0.3,2.3,1.2,3.4c0.7,0.8,1,1.8,1.7,2.6c0.5,0.5,1.2,1,1.9,1.4c1,0.7,2.1,2.5,3.5,2.4
				c1.5-0.2,2.8-2.4,3.5-3.6c1.3-2.3,3.1-6.9,0.8-9.2c-1-1-2.6-1-3.7-0.2c-1.6,1.1-1.8,3-1.8,4.7c0,1.6,2.5,1.6,2.5,0
				c0-0.6,0-1.3,0.2-1.9c1-0.9,1.5-0.9,1.4,0.2c0.2,0.7-0.2,1.8-0.4,2.5c-0.5,1.7-1.5,4.1-3.2,5c0.4,0,0.8,0,1.3,0
				c-0.6-0.3-1.2-1.1-1.7-1.5c-0.5-0.4-1.1-0.8-1.7-1.2c-0.9-0.7-1.2-1.5-1.8-2.4c-0.3-0.4-1.3-1.1-1.1-1.6
				C107.5,113.8,105.1,113.2,104.6,114.7L104.6,114.7z"/>
		</g>
	</g>
	<g>
		<g>
			<path class="st3" d="M104.4,114.7c-0.9,1.8-0.5,3.7,0.7,5.2c1.4,1.8,3.7,2.5,5.6,3.6c1.4,0.8,2.6-1.3,1.3-2.2
				c-1.6-1-6.7-2.6-5.4-5.4C107.3,114.5,105.1,113.2,104.4,114.7L104.4,114.7z"/>
		</g>
	</g>
	<g>
		<g>
			<path class="st3" d="M113.9,114.6c-0.1-0.1,0-0.5,0.3-0.6c0.1,0,0.5,0.1,0.5,0.4c0.4,1.5,2.9,0.9,2.4-0.7
				c-0.5-1.7-2.4-2.7-4.1-1.9c-1.5,0.7-2,2.6-1.3,4.1c0.3,0.6,1.2,0.8,1.7,0.4C114.1,115.9,114.2,115.2,113.9,114.6L113.9,114.6z"/>
		</g>
	</g>
	<g>
		<g>
			<path class="st3" d="M53.6,148.9c-0.3-2.2-0.2-6.2,1.9-7.7c0.5-1.2,0.9-1.2,1-0.1c0,1,0,1.9,0,2.9c0,1.5-0.5,3.8,0.7,4.9
				c3.1,2.8,8.2-4.6,9.7-6.2c-0.7-0.3-1.4-0.6-2.1-0.9c-0.4,4.3-0.8,8.8-2.2,12.9c-0.6,1.7-2,5.7-4.1,6.2c-3-1-3.5-1.5-1.4-1.6
				c0.8,0,1.5-0.2,2.3-0.6c1.5-0.5,0.9-3-0.7-2.4c-2.3,0.8-6.3,0.5-6.4,3.9c-0.1,2.5,2.4,4,4.6,3.8c9.2-0.8,9.8-15.7,10.5-22.2
				c0.1-1.1-1.4-1.6-2.1-0.9c-1,1.1-4.3,6-6.2,4c-0.9-1,0.2-5.4-0.4-7c-0.2-0.6-0.6-0.9-1.2-0.9c-5.4-0.5-6.8,9-6.2,12.5
				C51.4,151.1,53.8,150.5,53.6,148.9L53.6,148.9z"/>
		</g>
	</g>
	<g>
		<g>
			<path class="st3" d="M67,147.3c0,1.4,0,2.7,0,4.1c0,1-0.1,2,0.8,2.7c1.5,1.2,4,0,5.2-1.2c1.3-1.4,1.7-3.4,0.7-5
				c-1-1.6-3-2.6-4.8-1.9c-1.5,0.5-0.9,2.9,0.7,2.4c0.8-0.3,1.7,0.1,2.1,0.9c0.4,0.8-0.1,1.7-0.8,2.2c-0.4,0.3-0.7,0.3-1.1,0.5
				c-0.4,0-0.5,0-0.2,0.1c0-0.3,0-0.6,0-1c0-1.3,0-2.6,0-3.9C69.5,145.6,67,145.6,67,147.3L67,147.3z"/>
		</g>
	</g>
	<g>
		<g>
			<path class="st3" d="M75.4,145.4c-0.3,1.9-1.7,9.1,2,8.8c1.4-0.1,2.1-1.4,2.7-2.5c1-1.8,1.9-3.6,2.7-5.5
				c-0.8-0.1-1.6-0.2-2.5-0.3c-0.2,1.8-0.6,3.6-0.6,5.3c0,1.1,0.2,2.2,1.2,2.9c2.1,1.5,4.4-1.1,5.4-2.8c0.8-1.4-1.3-2.6-2.2-1.3
				c-0.3,0.5-0.7,1-1.1,1.4c-1.1,1-0.8-0.5-0.8-1.2c0.2-1.5,0.3-3,0.5-4.4c0.2-1.5-2-1.5-2.5-0.3c-0.8,1.9-1.7,3.7-2.7,5.5
				c-0.1,0.2-0.2,0.3-0.3,0.5c-0.2,0.3-0.2,0.3,0,0c0-0.4,0.1-1.1,0.1-1.6c0-1.3,0.1-2.6,0.3-3.8C78,144.5,75.6,143.8,75.4,145.4
				L75.4,145.4z"/>
		</g>
	</g>
	<g>
		<g>
			<path class="st3" d="M87.3,146.6c0-0.1,0-0.3,0-0.4c-0.6,0.2-1.2,0.5-1.8,0.7c2,1.3,4.5,1,6.2-0.6c-0.7-0.4-1.4-0.8-2.1-1.2
				c-0.5,1.8-1.1,3.6-1.5,5.5c-0.3,1.3-0.3,2.6,0.7,3.6c2.2,2.2,4.9-0.9,6-2.8c0.8-1.4-1.3-2.6-2.2-1.3c-0.3,0.6-0.8,1.5-1.5,1.8
				c-0.4,0.5-0.6,0.5-0.7,0c0-0.4,0.1-0.8,0.2-1.1c0.4-1.7,0.9-3.3,1.4-5c0.3-1.2-1.2-2-2.1-1.2c-0.9,0.9-2.1,0.9-3.2,0.2
				c-0.8-0.5-1.5,0-1.8,0.7c-0.3,0.8-0.2,1.6,0.2,2.4C86,149.2,88.2,148,87.3,146.6L87.3,146.6z"/>
		</g>
	</g>
	<g>
		<g>
			<path class="st3" d="M86.8,142.5c1,0,2,0,3,0c1.6,0,1.6-2.5,0-2.5c-1,0-2,0-3,0C85.1,140,85.1,142.5,86.8,142.5L86.8,142.5z"/>
		</g>
	</g>
</g>
</svg>
