<?xml version="1.0" encoding="utf-8"?>
<!-- Generator: Adobe Illustrator 22.1.0, SVG Export Plug-In . SVG Version: 6.00 Build 0)  -->
<svg version="1.1" id="Слой_1" xmlns="http://www.w3.org/2000/svg" xmlns:xlink="http://www.w3.org/1999/xlink" x="0px" y="0px"
	 viewBox="0 0 217 267" style="enable-background:new 0 0 217 267;" xml:space="preserve">
<style type="text/css">
	.st0{fill:#C799C6;}
	.st1{fill:#769B87;}
	.st2{fill:#DCB6D6;}
</style>
<g>
	<g>
		<path class="st0" d="M766.2-432.3c-30.7-53.4-67.3-103.3-108.9-148.8c-0.6,1.4-1.2,2.8-1.8,4.3c23.2,1.3,38.9,22.3,43.4,43.6
			c5.7,26.8-6.5,54.2-17.5,78c-10.7,23.3-22.6,47.4-23.4,73.5c-0.3,9.3,0.2,19.8,6.6,27.3c4.5,5.3,11.2,8.1,16.8,2.9
			c0.8-0.7,1-2.2,0.4-3c-50-71.8-121-125.8-199.6-163c-86.8-41.1-181.4-61.1-276.5-70c-108.5-10.2-217.7-6.9-326.5-5.8
			c-111.9,1.1-223.8,2.3-335.7,3.4c-56,0.6-111.9,1.1-167.9,1.7c-13.7,0.1-38.5-0.6-40.4,18.3c-0.5,5.1,0.9,10.4,1.7,15.4
			c1.2,6.9,2.3,13.8,3.5,20.7c2.3,13.8,4.7,27.6,7,41.4c2.3,13.3,4.5,26.7,6.8,40c0.5,2.7,5.2,2.1,4.9-0.7c-1-8.6-2.1-17.2-3.1-25.8
			c-0.4-3.2-5.4-3.2-5,0c1,8.6,2.1,17.2,3.1,25.8c1.6-0.2,3.3-0.4,4.9-0.7c-4.4-26.2-8.9-52.4-13.3-78.6c-1.1-6.4-2.2-12.9-3.3-19.3
			c-1.1-6.7-4.4-15.8-0.9-22.2c4.5-8.4,17.3-9,25.5-9.1c54-1.2,108.1-1.1,162.2-1.7c108.1-1.1,216.2-2.2,324.4-3.3
			c105-1.1,210.5-4.4,315.4,2.6c96,6.4,192.2,22.5,281.5,59.4c79.1,32.7,152.8,81.3,207.4,148c6.9,8.5,13.5,17.2,19.7,26.2
			c0.1-1,0.3-2,0.4-3c-6.4,6-12.9-7.1-13.9-11.7c-1.4-6.4-1.2-13.6-0.6-20.1c1.2-13.8,5.6-27.2,10.8-40c9.4-23.1,22.3-45,28.1-69.5
			c4.6-19.4,4.1-39.5-5.7-57.3c-8.5-15.5-23-27.1-41.1-28.1c-2.3-0.1-3.1,2.8-1.8,4.3c41.3,45.2,77.5,94.7,108.1,147.8
			C763.5-427,767.8-429.5,766.2-432.3L766.2-432.3z"/>
	</g>
</g>
<g>
	<g>
		<path class="st1" d="M-117.5-141.5c3.2,0,3.2-5,0-5C-120.7-146.5-120.7-141.5-117.5-141.5L-117.5-141.5z"/>
	</g>
</g>
<g id="Слой_2">
	<g>
		<path class="st2" d="M76.2,131.2c0.6-2.6-1.1-5.3-3.4-6.6s-5.2-1.4-7.8-0.9c-1,0.2-2.1,0.5-2.7,1.3c-0.4,0.5-0.5,1.2-0.5,1.9
			c-0.3,3.4,0.6,7,2.6,9.8c3.5,5.1,9.9,7.6,13.1,12.9c3.2-3.3,6.5-6.6,8.8-10.6s3.9-8.6,3.2-13.2c-0.3-2.1-1.3-4.4-3.4-5
			c-2.4-0.8-4.8,1.2-6.6,3.1c-1.6,1.6-3.2,3.3-3.9,5.5"/>
		<g>
			<path class="st2" d="M77.4,131.2c0.4-4.3-2.4-7.6-6.5-8.7c-3.2-0.8-8.5-0.9-10.1,2.6c-1.6,3.6,0.4,9.1,2.4,12.1
				c3.5,5.2,9.6,7.7,13.1,12.9c0.4,0.6,1.4,0.9,2,0.3c6.3-6.5,16.4-17.4,11.6-27.5c-4-8.6-13.1,0.6-15.4,5.7
				c-0.7,1.5,1.5,2.7,2.2,1.3c0.9-2.1,2.4-4.4,4.3-5.8c8.5-6.2,7.6,5.6,6.6,8.9c-2,6.2-6.6,11-11,15.6c0.7,0.1,1.3,0.2,2,0.3
				c-2.8-4.1-7-6.6-10.5-9.9c-2.4-2.2-4.2-4.8-4.8-8c-1.7-8.2,12.4-8,11.7,0.3C74.8,132.8,77.3,132.8,77.4,131.2L77.4,131.2z"/>
		</g>
	</g>
	<g>
		<path class="st2" d="M109,131.2c0.6-2.6-1.1-5.3-3.4-6.6s-5.2-1.4-7.8-0.9c-1,0.2-2.1,0.5-2.7,1.3c-0.4,0.5-0.5,1.2-0.5,1.9
			c-0.3,3.4,0.6,7,2.6,9.8c3.5,5.1,9.9,7.6,13.1,12.9c3.2-3.3,6.5-6.6,8.8-10.6s3.9-8.6,3.2-13.2c-0.3-2.1-1.3-4.4-3.4-5
			c-2.4-0.8-4.8,1.2-6.6,3.1c-1.6,1.6-3.2,3.3-3.9,5.5"/>
		<g>
			<path class="st2" d="M110.2,131.2c0.4-4.3-2.4-7.6-6.5-8.7c-3.2-0.8-8.5-0.9-10.1,2.6c-1.6,3.6,0.4,9.1,2.4,12.1
				c3.5,5.2,9.6,7.7,13.1,12.9c0.4,0.6,1.4,0.9,2,0.3c6.3-6.5,16.4-17.4,11.6-27.5c-4-8.6-13.1,0.6-15.4,5.7
				c-0.7,1.5,1.5,2.7,2.2,1.3c0.9-2.1,2.4-4.4,4.3-5.8c8.5-6.2,7.6,5.6,6.6,8.9c-2,6.2-6.6,11-11,15.6c0.7,0.1,1.3,0.2,2,0.3
				c-2.8-4.1-7-6.6-10.5-9.9c-2.4-2.2-4.2-4.8-4.8-8c-1.7-8.2,12.4-8,11.7,0.3C107.6,132.8,110.1,132.8,110.2,131.2L110.2,131.2z"/>
		</g>
	</g>
	<g>
		<path class="st2" d="M141.8,131.2c0.6-2.6-1.1-5.3-3.4-6.6c-2.3-1.3-5.2-1.4-7.8-0.9c-1,0.2-2.1,0.5-2.7,1.3
			c-0.4,0.5-0.5,1.2-0.5,1.9c-0.3,3.4,0.6,7,2.6,9.8c3.5,5.1,9.9,7.6,13.1,12.9c3.2-3.3,6.5-6.6,8.8-10.6s3.9-8.6,3.2-13.2
			c-0.3-2.1-1.3-4.4-3.4-5c-2.4-0.8-4.8,1.2-6.6,3.1c-1.6,1.6-3.2,3.3-3.9,5.5"/>
		<g>
			<path class="st2" d="M143,131.2c0.4-4.3-2.4-7.6-6.5-8.7c-3.2-0.8-8.5-0.9-10.1,2.6c-1.6,3.6,0.4,9.1,2.4,12.1
				c3.5,5.2,9.6,7.7,13.1,12.9c0.4,0.6,1.4,0.9,2,0.3c6.3-6.5,16.4-17.4,11.6-27.5c-4-8.6-13.1,0.6-15.4,5.7
				c-0.7,1.5,1.5,2.7,2.2,1.3c0.9-2.1,2.4-4.4,4.3-5.8c8.5-6.2,7.6,5.6,6.6,8.9c-2,6.2-6.6,11-11,15.6c0.7,0.1,1.3,0.2,2,0.3
				c-2.8-4.1-7-6.6-10.5-9.9c-2.4-2.2-4.2-4.8-4.8-8c-1.7-8.2,12.4-8,11.7,0.3C140.4,132.8,142.9,132.8,143,131.2L143,131.2z"/>
		</g>
	</g>
</g>
</svg>
