<?xml version="1.0" encoding="utf-8"?>
<!-- Generator: Adobe Illustrator 22.1.0, SVG Export Plug-In . SVG Version: 6.00 Build 0)  -->
<svg version="1.1" id="Слой_1" xmlns="http://www.w3.org/2000/svg" xmlns:xlink="http://www.w3.org/1999/xlink" x="0px" y="0px"
	 viewBox="0 0 217 267" style="enable-background:new 0 0 217 267;" xml:space="preserve">
<style type="text/css">
	.st0{fill:#C799C6;}
	.st1{fill:#769B87;}
	.st2{fill:#E8D4E8;}
	.st3{fill:#FFFFFF;}
</style>
<g>
	<g>
		<path class="st0" d="M766.2-432.3c-30.7-53.4-67.3-103.3-108.9-148.8c-0.6,1.4-1.2,2.8-1.8,4.3c23.2,1.3,38.9,22.3,43.4,43.6
			c5.7,26.8-6.5,54.2-17.5,78c-10.7,23.3-22.6,47.4-23.4,73.5c-0.3,9.3,0.2,19.8,6.6,27.3c4.5,5.3,11.2,8.1,16.8,2.9
			c0.8-0.7,1-2.2,0.4-3c-50-71.8-121-125.8-199.6-163c-86.8-41.1-181.4-61.1-276.5-70c-108.5-10.2-217.7-6.9-326.5-5.8
			c-111.9,1.1-223.8,2.3-335.7,3.4c-56,0.6-111.9,1.1-167.9,1.7c-13.7,0.1-38.5-0.6-40.4,18.3c-0.5,5.1,0.9,10.4,1.7,15.4
			c1.2,6.9,2.3,13.8,3.5,20.7c2.3,13.8,4.7,27.6,7,41.4c2.3,13.3,4.5,26.7,6.8,40c0.5,2.7,5.2,2.1,4.9-0.7c-1-8.6-2.1-17.2-3.1-25.8
			c-0.4-3.2-5.4-3.2-5,0c1,8.6,2.1,17.2,3.1,25.8c1.6-0.2,3.3-0.4,4.9-0.7c-4.4-26.2-8.9-52.4-13.3-78.6c-1.1-6.4-2.2-12.9-3.3-19.3
			c-1.1-6.7-4.4-15.8-0.9-22.2c4.5-8.4,17.3-9,25.5-9.1c54-1.2,108.1-1.1,162.2-1.7c108.1-1.1,216.2-2.2,324.4-3.3
			c105-1.1,210.5-4.4,315.4,2.6c96,6.4,192.2,22.5,281.5,59.4c79.1,32.7,152.8,81.3,207.4,148c6.9,8.5,13.5,17.2,19.7,26.2
			c0.1-1,0.3-2,0.4-3c-6.4,6-12.9-7.1-13.9-11.7c-1.4-6.4-1.2-13.6-0.6-20.1c1.2-13.8,5.6-27.2,10.8-40c9.4-23.1,22.3-45,28.1-69.5
			c4.6-19.4,4.1-39.5-5.7-57.3c-8.5-15.5-23-27.1-41.1-28.1c-2.3-0.1-3.1,2.8-1.8,4.3c41.3,45.2,77.5,94.7,108.1,147.8
			C763.5-427,767.8-429.5,766.2-432.3L766.2-432.3z"/>
	</g>
</g>
<g>
	<g>
		<path class="st1" d="M-117.5-141.5c3.2,0,3.2-5,0-5C-120.7-146.5-120.7-141.5-117.5-141.5L-117.5-141.5z"/>
	</g>
</g>
<g>
	<path class="st2" d="M72.9,98.8c-5.6-13,0.5-29.9,13.2-36.3s29.8-1.5,37.1,10.7c2.7,4.6,4.1,9.8,5.1,15c0.9,4.9,1.4,9.8,1.5,14.8
		c5.9-10.2,19.7-13.8,31.2-10.8c8.2,2.2,16.1,7.8,18.6,15.9c2.3,7.2,0,15.2-3.6,21.9c-4.3,8.1-11.5,15.5-20.6,16.4
		c11,10.1,16.8,27,10.6,40.6c-6.3,13.7-23.5,20.3-38.1,16.7c-14.6-3.7-26-16-31.2-30.1c-6.4,5.8-13.1,11.5-21.1,14.8
		s-17.6,3.8-25-0.6c-8.3-5-12.4-15.7-10.5-25.2c1.9-9.5,9.3-17.5,18.3-21.2c-11.1,1-21.7-8.1-23.6-19.1S39,99.8,48.6,94.2
		c4.3-2.5,9.3-4,14.2-3.1s9.3,4.6,10.2,9.5"/>
	<g>
		<path class="st2" d="M75.3,98.1c-6.3-16,4.3-35.4,22.2-36c7.9-0.3,16,3.1,21.2,9c7.2,8.3,8.2,21.3,8.6,31.7
			c0.1,2.5,3.3,3.4,4.7,1.3c8.7-14,31.4-13.7,41.7-1.6c11.8,13.9-2.7,39.1-19,41.4c-1.9,0.3-2.3,3-1.1,4.2
			c7.5,7.2,12.8,17.2,12.4,27.8c-0.4,11.1-7.7,20-17.9,23.9c-21.3,8.1-41.5-7.6-49-27c-0.7-1.8-2.7-2.4-4.2-1.1
			c-11.6,10.5-33.2,26.1-47.4,10.3c-12.1-13.5-2.5-32.1,12-38.6c2.3-1,1.1-4.8-1.3-4.7c-14.4,0.8-24.5-13.8-20.4-27.2
			c1.9-6.3,6.3-11.9,12-15.2c6.9-4.1,18.3-4.7,20.7,4.9c0.8,3.1,5.6,1.8,4.8-1.3c-2.2-8.8-11.3-12.9-19.8-11.2
			C46,90.7,38,98.1,34.3,106.9c-7.3,17,4.6,37.9,24,36.9c-0.4-1.6-0.8-3.1-1.3-4.7c-17.2,7.6-26.9,29.4-13.9,45.4
			c6.3,7.8,16.5,10,26.1,8.3c11.5-2.1,20.8-9.9,29.3-17.5c-1.4-0.4-2.8-0.7-4.2-1.1c8.7,22.8,32.8,40.4,57.3,29.6
			c10.6-4.7,18.1-14.1,19.2-25.7c1.2-12.6-4.8-25-13.7-33.5c-0.4,1.4-0.7,2.8-1.1,4.2c19.7-2.7,35.1-32.1,22.1-48.6
			c-12.2-15.5-39.8-15.6-50.4,1.6c1.6,0.4,3.1,0.8,4.7,1.3c-0.4-11.9-1.8-25.9-10-35.3c-6.4-7.2-16.5-11.1-26.1-10.4
			c-20.3,1.4-33,23.7-25.7,42.3C71.6,102.4,76.5,101.1,75.3,98.1L75.3,98.1z"/>
	</g>
</g>
<g>
	<g>
		<path class="st2" d="M80,153.5c6.4,0,6.4-10,0-10C73.6,143.5,73.6,153.5,80,153.5L80,153.5z"/>
	</g>
</g>
<g>
	<g>
		<path class="st3" d="M87.5,146c3.2,0,3.2-5,0-5C84.3,141,84.3,146,87.5,146L87.5,146z"/>
	</g>
</g>
<g>
	<g>
		<path class="st3" d="M80.5,130c3.2,0,3.2-5,0-5C77.3,125,77.3,130,80.5,130L80.5,130z"/>
	</g>
</g>
<g>
	<g>
		<path class="st3" d="M98,120c3.2,0,3.2-5,0-5C94.8,115,94.8,120,98,120L98,120z"/>
	</g>
</g>
<g>
	<g>
		<path class="st3" d="M113,125c3.2,0,3.2-5,0-5C109.8,120,109.8,125,113,125L113,125z"/>
	</g>
</g>
<g>
	<g>
		<path class="st3" d="M111,145c3.2,0,3.2-5,0-5C107.8,140,107.8,145,111,145L111,145z"/>
	</g>
</g>
<g>
	<g>
		<path class="st3" d="M111,145.5c3.2,0,3.2-5,0-5C107.8,140.5,107.8,145.5,111,145.5L111,145.5z"/>
	</g>
</g>
<g>
	<g>
		<path class="st3" d="M111,145.5c3.2,0,3.2-5,0-5C107.8,140.5,107.8,145.5,111,145.5L111,145.5z"/>
	</g>
</g>
<g>
	<g>
		<path class="st3" d="M88.1,144c2.4-0.3,4.2-2.6,5.7-4.2c1.9-2,3.5-4.2,5-6.5c0.9-1.4-1.3-2.6-2.2-1.3c-1.2,1.9-2.6,3.7-4.1,5.5
			c-1.3,1.5-3.1,3.8-5.1,4.1C85.8,141.8,86.5,144.2,88.1,144L88.1,144z"/>
	</g>
</g>
<g>
	<g>
		<path class="st3" d="M97.4,132.8c4.2,3.1,6.4,8.2,11.2,10.5c1.4,0.7,2.7-1.5,1.3-2.2c-4.7-2.2-7.1-7.4-11.2-10.5
			C97.4,129.7,96.1,131.9,97.4,132.8L97.4,132.8z"/>
	</g>
</g>
<g>
	<g>
		<path class="st3" d="M98.2,132.8c6.4,0.9,12.8-2.4,15.4-8.4c0.6-1.5-1.5-2.7-2.2-1.3c-2.1,4.9-7.2,8.1-12.6,7.3
			C97.3,130.2,96.6,132.6,98.2,132.8L98.2,132.8z"/>
	</g>
</g>
<g>
	<g>
		<path class="st3" d="M99.3,131.3c0.7-3.9,1-7.8,0.9-11.8c0-1.6-2.5-1.6-2.5,0c0.1,3.7-0.2,7.5-0.8,11.1
			C96.7,132.2,99.1,132.9,99.3,131.3L99.3,131.3z"/>
	</g>
</g>
<g>
	<g>
		<path class="st3" d="M80.9,128.5c5.3,2.3,10.8,3.9,16.6,4.6c1.6,0.2,1.6-2.3,0-2.5c-5.3-0.7-10.4-2.2-15.3-4.3
			C80.7,125.7,79.4,127.9,80.9,128.5L80.9,128.5z"/>
	</g>
</g>
</svg>
