<?xml version="1.0" encoding="utf-8"?>
<!-- Generator: Adobe Illustrator 22.1.0, SVG Export Plug-In . SVG Version: 6.00 Build 0)  -->
<svg version="1.1" id="Слой_1" xmlns="http://www.w3.org/2000/svg" xmlns:xlink="http://www.w3.org/1999/xlink" x="0px" y="0px"
	 viewBox="0 0 217 267" style="enable-background:new 0 0 217 267;" xml:space="preserve">
<style type="text/css">
	.st0{fill:#C799C6;}
	.st1{fill:#769B87;}
	.st2{fill:#F4BED8;}
	.st3{fill:#768E88;}
</style>
<g>
	<g>
		<path class="st0" d="M766.2-432.3c-30.7-53.4-67.3-103.3-108.9-148.8c-0.6,1.4-1.2,2.8-1.8,4.3c23.2,1.3,38.9,22.3,43.4,43.6
			c5.7,26.8-6.5,54.2-17.5,78c-10.7,23.3-22.6,47.4-23.4,73.5c-0.3,9.3,0.2,19.8,6.6,27.3c4.5,5.3,11.2,8.1,16.8,2.9
			c0.8-0.7,1-2.2,0.4-3c-50-71.8-121-125.8-199.6-163c-86.8-41.1-181.4-61.1-276.5-70c-108.5-10.2-217.7-6.9-326.5-5.8
			c-111.9,1.1-223.8,2.3-335.7,3.4c-56,0.6-111.9,1.1-167.9,1.7c-13.7,0.1-38.5-0.6-40.4,18.3c-0.5,5.1,0.9,10.4,1.7,15.4
			c1.2,6.9,2.3,13.8,3.5,20.7c2.3,13.8,4.7,27.6,7,41.4c2.3,13.3,4.5,26.7,6.8,40c0.5,2.7,5.2,2.1,4.9-0.7c-1-8.6-2.1-17.2-3.1-25.8
			c-0.4-3.2-5.4-3.2-5,0c1,8.6,2.1,17.2,3.1,25.8c1.6-0.2,3.3-0.4,4.9-0.7c-4.4-26.2-8.9-52.4-13.3-78.6c-1.1-6.4-2.2-12.9-3.3-19.3
			c-1.1-6.7-4.4-15.8-0.9-22.2c4.5-8.4,17.3-9,25.5-9.1c54-1.2,108.1-1.1,162.2-1.7c108.1-1.1,216.2-2.2,324.4-3.3
			c105-1.1,210.5-4.4,315.4,2.6c96,6.4,192.2,22.5,281.5,59.4c79.1,32.7,152.8,81.3,207.4,148c6.9,8.5,13.5,17.2,19.7,26.2
			c0.1-1,0.3-2,0.4-3c-6.4,6-12.9-7.1-13.9-11.7c-1.4-6.4-1.2-13.6-0.6-20.1c1.2-13.8,5.6-27.2,10.8-40c9.4-23.1,22.3-45,28.1-69.5
			c4.6-19.4,4.1-39.5-5.7-57.3c-8.5-15.5-23-27.1-41.1-28.1c-2.3-0.1-3.1,2.8-1.8,4.3c41.3,45.2,77.5,94.7,108.1,147.8
			C763.5-427,767.8-429.5,766.2-432.3L766.2-432.3z"/>
	</g>
</g>
<g>
	<g>
		<path class="st1" d="M-117.5-141.5c3.2,0,3.2-5,0-5C-120.7-146.5-120.7-141.5-117.5-141.5L-117.5-141.5z"/>
	</g>
</g>
<g>
	<path class="st2" d="M80.5,107.3c-8.3-0.6-16.7,2.2-23.1,7.4c-6.4,5.3-10.6,13.1-11.5,21.3c-1.4,12.2,4.4,24.5,13.6,32.6
		s21.3,12.3,33.5,13.5c6.6,0.6,13.3,0.5,19.6-1.5c7.6-2.4,14.2-7.3,20.2-12.7c8.9-8,16.9-17.8,19.3-29.5c1-4.8,1.1-9.9,0.1-14.7
		c-3.1-15.6-16.3-27.9-31.4-33c-3.9-1.3-8.1-2.2-12.2-2c-6.4,0.3-12.4,3-18.2,5.8c-2.7,1.3-5.5,2.6-7.3,4.9
		c-2.1,2.6-2.8,6.1-3.4,9.4"/>
	<g>
		<path class="st2" d="M80.5,104.8c-22.7-1-40.8,19.2-36.6,41.8c4.3,23.3,27.3,36,49.2,38.1c12.2,1.2,23.6-1.3,33.6-8.4
			c8.8-6.3,17-14.3,22.5-23.6c11.5-19.4,5.9-42.3-11.7-55.8c-9.6-7.3-22.5-12.5-34.6-9.7c-6,1.4-12.4,4.1-17.6,7.3
			c-5.1,3.2-6.9,8-7.9,13.7c-0.6,3.1,4.2,4.5,4.8,1.3c0.9-5,2.2-8.8,6.9-11.5c4.4-2.5,9.4-4.6,14.3-5.9c9.7-2.5,19.9,1.2,28.1,6.5
			c16.5,10.7,24.2,30.6,15,48.7c-8.1,16-25.9,31.6-44.3,32.5c-19,1-40.7-7-49.8-24.6C41.1,134,56,108.7,80.5,109.8
			C83.7,109.9,83.7,104.9,80.5,104.8L80.5,104.8z"/>
	</g>
</g>
<g>
	<path class="st3" d="M78.7,109.4c-8.3-1.2-15.8-7-19.2-14.6c-0.8-1.8-1.4-3.9-0.6-5.7c0.8-1.9,3.1-2.9,5.2-2.9c2.6,0,5.1,1.4,7,3.2
		c1.9,1.8,3.3,4.1,4.7,6.3c2.8,4.5,5.7,9.6,4.5,14.7c-1.7-0.2-3.4-1.2-4.4-2.6"/>
	<g>
		<path class="st3" d="M79.4,106.9c-6.7-1.2-15.7-6-17.5-13.3c-1.7-6.4,4.6-5.3,7.6-2.7c1.6,1.4,2.8,3.3,3.9,5.1
			c2.6,4,5.5,8.5,4.7,13.5c1-0.6,2.1-1.2,3.1-1.7c-1.4-0.1-2.5-0.8-3.3-2c-2.1-2.4-5.6,1.1-3.5,3.5c1.5,1.8,3.2,2.8,5.5,3.2
			c1.2,0.3,2.9-0.3,3.1-1.7c1.2-7.7-3-14.7-7.4-20.6C71.8,85.6,64.8,81,59,85.2c-5.6,4.1-1.9,11.6,1.4,15.9
			c4.3,5.7,10.6,9.5,17.7,10.7C81.2,112.3,82.6,107.5,79.4,106.9L79.4,106.9z"/>
	</g>
</g>
</svg>
