<?xml version="1.0" encoding="utf-8"?>
<!-- Generator: Adobe Illustrator 22.1.0, SVG Export Plug-In . SVG Version: 6.00 Build 0)  -->
<svg version="1.1" id="Слой_1" xmlns="http://www.w3.org/2000/svg" xmlns:xlink="http://www.w3.org/1999/xlink" x="0px" y="0px"
	 viewBox="0 0 217 267" style="enable-background:new 0 0 217 267;" xml:space="preserve">
<style type="text/css">
	.st0{fill:#C799C6;}
	.st1{fill:#769B87;}
	.st2{fill:#FBF0D5;}
	.st3{fill:#EFDE96;}
</style>
<g>
	<g>
		<path class="st0" d="M766.2-432.3c-30.7-53.4-67.3-103.3-108.9-148.8c-0.6,1.4-1.2,2.8-1.8,4.3c23.2,1.3,38.9,22.3,43.4,43.6
			c5.7,26.8-6.5,54.2-17.5,78c-10.7,23.3-22.6,47.4-23.4,73.5c-0.3,9.3,0.2,19.8,6.6,27.3c4.5,5.3,11.2,8.1,16.8,2.9
			c0.8-0.7,1-2.2,0.4-3c-50-71.8-121-125.8-199.6-163c-86.8-41.1-181.4-61.1-276.5-70c-108.5-10.2-217.7-6.9-326.5-5.8
			c-111.9,1.1-223.8,2.3-335.7,3.4c-56,0.6-111.9,1.1-167.9,1.7c-13.7,0.1-38.5-0.6-40.4,18.3c-0.5,5.1,0.9,10.4,1.7,15.4
			c1.2,6.9,2.3,13.8,3.5,20.7c2.3,13.8,4.7,27.6,7,41.4c2.3,13.3,4.5,26.7,6.8,40c0.5,2.7,5.2,2.1,4.9-0.7c-1-8.6-2.1-17.2-3.1-25.8
			c-0.4-3.2-5.4-3.2-5,0c1,8.6,2.1,17.2,3.1,25.8c1.6-0.2,3.3-0.4,4.9-0.7c-4.4-26.2-8.9-52.4-13.3-78.6c-1.1-6.4-2.2-12.9-3.3-19.3
			c-1.1-6.7-4.4-15.8-0.9-22.2c4.5-8.4,17.3-9,25.5-9.1c54-1.2,108.1-1.1,162.2-1.7c108.1-1.1,216.2-2.2,324.4-3.3
			c105-1.1,210.5-4.4,315.4,2.6c96,6.4,192.2,22.5,281.5,59.4c79.1,32.7,152.8,81.3,207.4,148c6.9,8.5,13.5,17.2,19.7,26.2
			c0.1-1,0.3-2,0.4-3c-6.4,6-12.9-7.1-13.9-11.7c-1.4-6.4-1.2-13.6-0.6-20.1c1.2-13.8,5.6-27.2,10.8-40c9.4-23.1,22.3-45,28.1-69.5
			c4.6-19.4,4.1-39.5-5.7-57.3c-8.5-15.5-23-27.1-41.1-28.1c-2.3-0.1-3.1,2.8-1.8,4.3c41.3,45.2,77.5,94.7,108.1,147.8
			C763.5-427,767.8-429.5,766.2-432.3L766.2-432.3z"/>
	</g>
</g>
<g>
	<g>
		<path class="st1" d="M-117.5-141.5c3.2,0,3.2-5,0-5C-120.7-146.5-120.7-141.5-117.5-141.5L-117.5-141.5z"/>
	</g>
</g>
<g>
	<path class="st2" d="M77.1,103.7c-7.7-3-10.9-12.2-11.2-20.4c-0.3-8.2,1.5-16.6-0.3-24.6c15.2,4.9,28.8,14.7,38.3,27.5
		c3.2,4.3,6,9.2,6.7,14.5c-0.7-7.9,1.5-15.8,5.1-22.9c3.6-7,8.5-13.3,13.5-19.5c6.2,8.6,12.4,17.5,15.5,27.6
		c3.1,10.1,2.7,21.9-3.5,30.5c10.7-4.9,22.3-7.6,34-8.1c-4.1,12.6-8.6,25.9-18.7,34.4c2.9,4.6,3.1,10.4,2.6,15.8
		c-1.4,14.9-8.1,29.3-18.6,39.9c1.1-3.4,0.2-7.1-1.6-10.2c-1.7-3.1-4.1-5.8-6.1-8.7c-3.3-5-5.5-10.7-6.2-16.7
		c-1.9,8.6-10.2,14-18.1,17.7c-7.9,3.7-16.7,7.1-21.6,14.3c-3.8-4.2-4.7-10.2-4.7-15.9c0.1-11.5,3.4-23,9.5-32.8
		c-9.4-1-18.9-2.1-27.3-6.3c-8.4-4.2-15.5-12.4-15.7-21.8c12.1-0.9,24.2-1.3,36.3-1.4C74.7,110.5,67.8,99,67.2,87"/>
	<g>
		<path class="st2" d="M78.4,101.5C62.6,94.5,70.5,71.1,68.1,58c-1,1-2.1,2.1-3.1,3.1c9.7,3.3,18.7,8.3,26.4,15.1
			c7.4,6.5,15.2,15.1,16.8,25.1c0.4,2.8,5.1,2.1,4.9-0.7c-1-15.8,8.4-28.8,17.8-40.6c-1.3-0.2-2.6-0.3-3.9-0.5
			c11.3,15.5,24.7,36.9,12,55.6c-1.6,2.3,1.4,4.3,3.4,3.4c10.4-4.6,21.4-7.2,32.7-7.8c-0.8-1.1-1.6-2.1-2.4-3.2
			c-3.9,12.2-8.2,24.6-18.1,33.3c-0.8,0.7-0.9,2.1-0.4,3c4.7,8.5,2.2,20-0.8,28.7c-3.1,9-8.2,17.1-14.8,23.9
			c1.4,0.8,2.8,1.6,4.2,2.4c1.6-6.3-1.1-11.6-4.7-16.6c-4.6-6.4-8-12.5-9.1-20.4c-0.4-2.5-4.2-2.2-4.8,0c-2.5,9.6-12,14-20.3,17.7
			c-7.3,3.4-14.3,7-19.2,13.7c1.3-0.2,2.6-0.3,3.9-0.5c-5.2-6.4-4.4-16.2-3.1-23.7c1.4-7.8,4.2-15.1,8.3-21.9
			c1.1-1.8-0.4-3.6-2.2-3.8c-15.6-1.7-39.3-5.6-40.5-25.6c-0.8,0.8-1.7,1.7-2.5,2.5c12.1-0.8,24.2-1.3,36.3-1.4
			c2.5,0,3.3-3.4,1.3-4.7c-9.6-6.1-15.8-16.2-16.6-27.6c-0.2-3.2-5.2-3.2-5,0c1,13.2,7.9,24.9,19.1,31.9c0.4-1.6,0.8-3.1,1.3-4.7
			c-12.1,0.1-24.2,0.6-36.3,1.4c-1.3,0.1-2.6,1.1-2.5,2.5c1.4,23.2,26.9,28.6,45.5,30.6c-0.7-1.3-1.4-2.5-2.2-3.8
			c-8.3,13.7-15.9,37.6-4.4,51.7c1.1,1.4,3.1,0.7,3.9-0.5c10.5-14.4,34.8-13.1,39.9-32.6c-1.6,0-3.2,0-4.8,0
			c0.8,5.6,2.6,11,5.5,15.9c3.4,5.6,10.1,11.1,8.3,18.4c-0.6,2.4,2.4,4.3,4.2,2.4c7.6-7.8,13.3-17.2,16.6-27.7
			c3.1-9.8,5-21.7-0.2-31c-0.1,1-0.3,2-0.4,3c10.5-9.2,15.2-22.6,19.4-35.5c0.5-1.5-0.8-3.2-2.4-3.2c-12.3,0.6-24,3.5-35.2,8.5
			c1.1,1.1,2.3,2.3,3.4,3.4c13.8-20.3,0.4-43.6-12-60.6c-0.8-1.2-2.8-1.9-3.9-0.5c-10.3,12.8-20.4,26.9-19.3,44.1
			c1.6-0.2,3.3-0.4,4.9-0.7C111.3,89.2,103,79.8,95,72.7c-8.3-7.4-18.1-12.9-28.6-16.4c-2-0.7-3.4,1.3-3.1,3.1
			c2.7,14.9-5.5,38.4,12.6,46.5C78.8,107.2,81.3,102.9,78.4,101.5L78.4,101.5z"/>
	</g>
</g>
<g>
	<path class="st3" d="M65.9,151.7c-3.2-4.4-4.7-10.1-4.1-15.5c0.1-0.7,0.2-1.4,0.7-1.9c0.5-0.5,1.2-0.6,1.8-0.6
		c3.5-0.2,7.1,1.1,10.3-0.1c2.1-0.8,3.7-2.6,5.6-3.8c1.6-0.9,3.3-1.5,5.1-2c7.1-2.2,14.5-4.3,22-3.4c1.3,0.2,2.6,0.4,3.7,1.1
		c1.1,0.7,1.9,1.8,2.6,2.9c4.1,7.3,1.3,17.7-6,21.9c-3,1.7-6.6,2.5-9,5c-2.8,2.9-3.4,7.6-6.7,10c-2.5,1.9-6.1,1.9-9,0.8
		S77.4,163,75,161c-3.2-2.6-6.4-5.2-9.5-7.8"/>
	<g>
		<path class="st3" d="M68,150.5c-1.7-2.6-3-5.3-3.6-8.4c-0.4-2-0.8-3.7,0.6-5.1c1.4-1.3,2.7-0.6,4.4-0.5c5.5,0.2,7.5-2,11.9-4.5
			c5.5-3.2,13.9-4.9,20.2-5.3c3.4-0.2,7.7-0.4,9.7,3c1.2,2.1,1.7,4.7,1.5,7.1c-0.3,5.2-3.3,9.7-8,12c-3.8,1.9-7.4,3.1-9.8,6.8
			c-1.3,2-2,4.4-3.5,6.2c-2.6,3.2-6.3,2.9-9.7,1.2c-5.4-2.8-10.1-7.7-14.8-11.5c-2.5-2-6,1.5-3.5,3.5c8.7,7.2,24.8,23.4,33.5,7.3
			c1-1.8,1.7-3.8,3.1-5.3c1.6-1.6,3.8-2.3,5.8-3.3c3.1-1.4,5.7-3.1,7.8-5.8c3.4-4.5,4.9-10.5,3.6-16.1c-1.5-6.5-5.6-9.7-12.1-10.1
			c-8.1-0.5-18.5,1.7-25.6,5.5c-1.5,0.8-2.6,1.9-4.1,2.8c-2.6,1.7-5,1.4-7.9,1.3c-2.6-0.1-5.7-0.6-7.5,1.7c-4,5.1,0.4,15.4,3.4,19.9
			C65.5,155.7,69.8,153.1,68,150.5L68,150.5z"/>
	</g>
</g>
</svg>
