<?xml version="1.0" encoding="utf-8"?>
<!-- Generator: Adobe Illustrator 22.1.0, SVG Export Plug-In . SVG Version: 6.00 Build 0)  -->
<svg version="1.1" id="Слой_1" xmlns="http://www.w3.org/2000/svg" xmlns:xlink="http://www.w3.org/1999/xlink" x="0px" y="0px"
	 viewBox="0 0 217 267" style="enable-background:new 0 0 217 267;" xml:space="preserve">
<style type="text/css">
	.st0{fill:#C799C6;}
	.st1{fill:#769B87;}
	.st2{fill:#A3C6AB;}
	.st3{fill:#F7D684;}
	.st4{fill:#FFFFFF;}
</style>
<g>
	<g>
		<path class="st0" d="M766.2-432.3c-30.7-53.4-67.3-103.3-108.9-148.8c-0.6,1.4-1.2,2.8-1.8,4.3c23.2,1.3,38.9,22.3,43.4,43.6
			c5.7,26.8-6.5,54.2-17.5,78c-10.7,23.3-22.6,47.4-23.4,73.5c-0.3,9.3,0.2,19.8,6.6,27.3c4.5,5.3,11.2,8.1,16.8,2.9
			c0.8-0.7,1-2.2,0.4-3c-50-71.8-121-125.8-199.6-163c-86.8-41.1-181.4-61.1-276.5-70c-108.5-10.2-217.7-6.9-326.5-5.8
			c-111.9,1.1-223.8,2.3-335.7,3.4c-56,0.6-111.9,1.1-167.9,1.7c-13.7,0.1-38.5-0.6-40.4,18.3c-0.5,5.1,0.9,10.4,1.7,15.4
			c1.2,6.9,2.3,13.8,3.5,20.7c2.3,13.8,4.7,27.6,7,41.4c2.3,13.3,4.5,26.7,6.8,40c0.5,2.7,5.2,2.1,4.9-0.7c-1-8.6-2.1-17.2-3.1-25.8
			c-0.4-3.2-5.4-3.2-5,0c1,8.6,2.1,17.2,3.1,25.8c1.6-0.2,3.3-0.4,4.9-0.7c-4.4-26.2-8.9-52.4-13.3-78.6c-1.1-6.4-2.2-12.9-3.3-19.3
			c-1.1-6.7-4.4-15.8-0.9-22.2c4.5-8.4,17.3-9,25.5-9.1c54-1.2,108.1-1.1,162.2-1.7c108.1-1.1,216.2-2.2,324.4-3.3
			c105-1.1,210.5-4.4,315.4,2.6c96,6.4,192.2,22.5,281.5,59.4c79.1,32.7,152.8,81.3,207.4,148c6.9,8.5,13.5,17.2,19.7,26.2
			c0.1-1,0.3-2,0.4-3c-6.4,6-12.9-7.1-13.9-11.7c-1.4-6.4-1.2-13.6-0.6-20.1c1.2-13.8,5.6-27.2,10.8-40c9.4-23.1,22.3-45,28.1-69.5
			c4.6-19.4,4.1-39.5-5.7-57.3c-8.5-15.5-23-27.1-41.1-28.1c-2.3-0.1-3.1,2.8-1.8,4.3c41.3,45.2,77.5,94.7,108.1,147.8
			C763.5-427,767.8-429.5,766.2-432.3L766.2-432.3z"/>
	</g>
</g>
<g>
	<g>
		<path class="st1" d="M-117.5-141.5c3.2,0,3.2-5,0-5C-120.7-146.5-120.7-141.5-117.5-141.5L-117.5-141.5z"/>
	</g>
</g>
<g>
	<path class="st2" d="M70.4,157.5c-2.4,7-2.7,14.6-1.1,21.8c0.6,2.7,1.6,5.5,3.7,7.3c0.5,0.5,1.2,0.9,1.9,0.9c0.8,0,1.5-0.4,2.2-0.9
		c5.3-3.9,8.7-10.1,9.9-16.6c1.2-6.5,0.5-13.2-1.1-19.6c-0.5-2-1.4-4.3-3.4-4.7c-1.7-0.3-3.3,0.9-4.4,2.2
		c-4.5,4.8-7.5,10.9-8.8,17.3"/>
	<g>
		<path class="st2" d="M68,156.8c-2.8,8.8-4.7,24.6,3.3,31.6c7.7,6.7,15.8-9.1,17.5-14.7c1.6-5.4,1.7-11.2,1-16.8
			c-0.5-4.1-1-11.1-5.4-13.1c-9.2-4.2-16.1,14.8-17.4,20.9c-0.7,3.1,4.1,4.5,4.8,1.3c0.6-2.8,7.4-21.5,11.6-15.5
			c1.6,2.2,1.6,8.1,1.7,10.6c0.2,3.8-0.1,7.6-1.2,11.2c-1.3,4.3-8.6,18.1-11.8,7.7c-2.2-7.1-1.5-14.9,0.7-21.9
			C73.7,155,68.9,153.7,68,156.8L68,156.8z"/>
	</g>
</g>
<g>
	<path class="st2" d="M120.4,124.6c6.3-6.4,15.6-9.7,24.5-8.8c2.5,0.2,5.4,1.3,5.9,3.7c0.4,1.9-1,3.6-2.4,5
		c-6.1,5.9-14.8,9.4-23.2,8.3c-1.6-0.2-3.2-0.6-4.3-1.8c-1.1-1.1-1.3-3.2,0-4.2"/>
	<g>
		<path class="st2" d="M122.1,126.4c3.6-3.4,7.7-5.9,12.4-7.2c2.3-0.6,11.2-2.7,12.7-0.2c2.6,4.1-7.7,8.9-10.3,9.9
			c-2.3,0.9-4.7,1.4-7.1,1.6c-0.8,0.1-8.6,0-6.9-2.3c1.9-2.6-2.4-5.1-4.3-2.5c-5.5,7.3,6.2,10.2,11.2,9.9c7.8-0.5,17.7-4.5,22-11.4
			c4.5-7.1-3.4-10.8-9.4-10.9c-9-0.1-17.4,3.5-23.9,9.7C116.2,125.1,119.8,128.6,122.1,126.4L122.1,126.4z"/>
	</g>
</g>
<g>
	<path class="st3" d="M118.5,131.5c9.9,8.9,16.4,21.5,17.9,34.8c0.6,5.5,0,11.8-4.3,15.3c-3.4,2.7-8.3,2.9-12.5,2
		c-9.3-2-17-8.4-23-15.8s-10.4-15.8-15.5-23.8c-2.2,4.3-6.1,7.4-10.2,9.8c-6.5,3.9-13.7,6.5-21.1,7.6c-6.2,0.9-13.7,0.3-16.8-5.1
		c-1.8-3.1-1.6-7-0.2-10.2c1.4-3.3,3.8-6,6.3-8.4c9.1-8.6,20.7-14.5,33-16.6c-2.1-4.3-5.4-7.8-8.2-11.6c-4.5-6.3-7.5-13.7-8.6-21.4
		c-0.8-5.8-0.1-12.6,4.6-15.9c3-2.1,7.1-2.2,10.6-1.1c3.5,1.2,6.5,3.5,9.1,6.1C87.8,85.4,93,96,98,106.4c3.3-13.3,17.4-23.1,31-21.5
		c2.9,0.3,6,1.3,7.6,3.6c1.8,2.6,1.4,6.1,0.6,9.1c-2.9,11.8-10,22.5-19.7,29.8"/>
	<g>
		<path class="st3" d="M116.8,133.2c7,6.5,12.3,14.4,15.1,23.5c2.5,8,5.5,24.1-7.1,24.7c-9.5,0.5-18.3-6.5-24.3-13.1
			c-6.9-7.7-11.7-17-17.2-25.7c-1-1.6-3.4-1.7-4.3,0c-4.6,8-14.5,12.5-23.1,14.9c-6.2,1.7-19.7,4.5-21.6-4.7
			c-1.8-8.5,8.8-16.1,14.9-20.1c7.2-4.7,15.1-7.7,23.5-9.3c1.7-0.3,2.2-2.4,1.5-3.7c-4-7.5-10.2-13.2-13.5-21.2
			c-2.6-6.4-5.9-17.3-0.7-23.1c7.8-8.8,19.4,4.4,23.8,10.5c4.9,6.7,8.5,14.3,12.1,21.7c1,2,4,1.4,4.6-0.6
			c3.4-12.1,17-22.8,30.1-19.4c9.5,2.5,2.3,16.6-0.7,21.9c-3.6,6.3-8.3,11.7-14,16.1c-2.5,2,1,5.5,3.5,3.5
			c7.9-6.1,14.1-14.2,17.8-23.4c3-7.3,6.3-18.1-2.9-22.2c-7.3-3.3-16.9-1-23.5,2.8c-7.4,4.2-12.8,11.1-15.1,19.3
			c1.5-0.2,3-0.4,4.6-0.6c-4.9-10.1-9.9-20.4-17.7-28.6c-5.9-6.3-15.7-12.3-24.1-6.4C51,75.3,51.9,86,53.8,93.6
			c1.3,5,3.3,9.9,6,14.4c3.1,5,7.3,9.2,10,14.4c0.5-1.2,1-2.4,1.5-3.7c-11.2,2.1-21.6,6.8-30.5,14c-6.9,5.6-15.7,15.3-10.1,24.9
			c4.9,8.4,16.7,7.3,24.8,5.3c10.4-2.6,22.2-7.9,27.7-17.6c-1.4,0-2.9,0-4.3,0c6.9,10.8,12.8,22.6,22.5,31.2
			c7.3,6.5,19.3,13.2,29.2,8.9c9.8-4.2,9.2-16.5,7.3-25.2c-2.6-11.7-8.8-22.3-17.6-30.4C117.9,127.5,114.4,131,116.8,133.2
			L116.8,133.2z"/>
	</g>
</g>
<g>
	<g>
		<path class="st4" d="M81.8,133.7c1.7,0.4,3.3,0.9,5,1.3c2.3,0.6,3.3-3,1-3.6c-1.7-0.4-3.3-0.9-5-1.3
			C80.4,129.5,79.4,133.1,81.8,133.7L81.8,133.7z"/>
	</g>
</g>
<g>
	<g>
		<path class="st4" d="M83.2,128.6c1.3-0.1,2.6,0.1,3.8,0.8c2.1,1.1,4-2.1,1.9-3.2c-1.8-0.9-3.7-1.4-5.7-1.3
			C80.8,125,80.8,128.8,83.2,128.6L83.2,128.6z"/>
	</g>
</g>
</svg>
