<?xml version="1.0" encoding="utf-8"?>
<!-- Generator: Adobe Illustrator 22.1.0, SVG Export Plug-In . SVG Version: 6.00 Build 0)  -->
<svg version="1.1" id="Слой_1" xmlns="http://www.w3.org/2000/svg" xmlns:xlink="http://www.w3.org/1999/xlink" x="0px" y="0px"
	 viewBox="0 0 217 267" style="enable-background:new 0 0 217 267;" xml:space="preserve">
<style type="text/css">
	.st0{fill:#C799C6;}
	.st1{fill:#769B87;}
	.st2{fill:#698260;}
	.st3{fill:#EF4351;}
	.st4{fill:#FFFFFF;}
</style>
<g>
	<g>
		<path class="st0" d="M766.2-432.3c-30.7-53.4-67.3-103.3-108.9-148.8c-0.6,1.4-1.2,2.8-1.8,4.3c23.2,1.3,38.9,22.3,43.4,43.6
			c5.7,26.8-6.5,54.2-17.5,78c-10.7,23.3-22.6,47.4-23.4,73.5c-0.3,9.3,0.2,19.8,6.6,27.3c4.5,5.3,11.2,8.1,16.8,2.9
			c0.8-0.7,1-2.2,0.4-3c-50-71.8-121-125.8-199.6-163c-86.8-41.1-181.4-61.1-276.5-70c-108.5-10.2-217.7-6.9-326.5-5.8
			c-111.9,1.1-223.8,2.3-335.7,3.4c-56,0.6-111.9,1.1-167.9,1.7c-13.7,0.1-38.5-0.6-40.4,18.3c-0.5,5.1,0.9,10.4,1.7,15.4
			c1.2,6.9,2.3,13.8,3.5,20.7c2.3,13.8,4.7,27.6,7,41.4c2.3,13.3,4.5,26.7,6.8,40c0.5,2.7,5.2,2.1,4.9-0.7c-1-8.6-2.1-17.2-3.1-25.8
			c-0.4-3.2-5.4-3.2-5,0c1,8.6,2.1,17.2,3.1,25.8c1.6-0.2,3.3-0.4,4.9-0.7c-4.4-26.2-8.9-52.4-13.3-78.6c-1.1-6.4-2.2-12.9-3.3-19.3
			c-1.1-6.7-4.4-15.8-0.9-22.2c4.5-8.4,17.3-9,25.5-9.1c54-1.2,108.1-1.1,162.2-1.7c108.1-1.1,216.2-2.2,324.4-3.3
			c105-1.1,210.5-4.4,315.4,2.6c96,6.4,192.2,22.5,281.5,59.4c79.1,32.7,152.8,81.3,207.4,148c6.9,8.5,13.5,17.2,19.7,26.2
			c0.1-1,0.3-2,0.4-3c-6.4,6-12.9-7.1-13.9-11.7c-1.4-6.4-1.2-13.6-0.6-20.1c1.2-13.8,5.6-27.2,10.8-40c9.4-23.1,22.3-45,28.1-69.5
			c4.6-19.4,4.1-39.5-5.7-57.3c-8.5-15.5-23-27.1-41.1-28.1c-2.3-0.1-3.1,2.8-1.8,4.3c41.3,45.2,77.5,94.7,108.1,147.8
			C763.5-427,767.8-429.5,766.2-432.3L766.2-432.3z"/>
	</g>
</g>
<g>
	<g>
		<path class="st1" d="M-117.5-141.5c3.2,0,3.2-5,0-5C-120.7-146.5-120.7-141.5-117.5-141.5L-117.5-141.5z"/>
	</g>
</g>
<g>
	<path class="st2" d="M54.7,150.2c-6.3,6-12.2,12.4-17.6,19.2c-0.3,0.4-0.6,0.8-0.6,1.3c0,0.5,0.4,0.9,0.7,1.2
		c2.6,2.5,6.3,3.7,9.9,3.9c3.6,0.2,7.3-0.5,10.8-1.1c-2.6,2.8-5,5.9-7,9.2c-0.9,1.4-1.5,3.6-0.1,4.4c0.7,0.4,1.5,0.2,2.3,0
		c5.3-1.4,10.1-4.4,13.8-8.5c-0.1,1.9,0.1,4.3,1.8,5.2c1.8,0.9,3.9-0.4,5.3-1.8c4.8-4.6,8.3-10.6,9.7-17.1c0.1,2.3,1.2,4.5,2.8,6
		c0.5,0.4,1.1,0.8,1.7,0.6c0.6-0.2,0.9-0.8,1.1-1.3c3.2-7.4,3.5-16.1,0.7-23.7c-0.2-0.5-1.1-0.8-1-0.3c0.6-3.3-1.3-6.7-4-8.5
		c-2.8-1.8-6.3-2.3-9.6-2c-9.6,0.8-18.3,8-21,17.2"/>
	<g>
		<path class="st2" d="M52.9,148.4c-4.5,4.3-8.8,8.8-12.9,13.5c-2,2.3-6.9,6.2-5.9,9.8c0.9,3.2,5.5,5.1,8.4,5.9
			c5.3,1.4,10.8,0.5,16-0.5c-0.8-1.4-1.6-2.8-2.4-4.2c-2.8,3.1-12.9,13.2-6.8,17.3c5.6,3.8,15.9-5,19.4-8.6
			c-1.4-0.6-2.8-1.2-4.3-1.8c0,5.9,4.2,10.3,9.9,6.4c6.2-4.3,10-12.3,11.8-19.4c-1.6,0-3.2,0-4.8,0c0.7,5.1,7,12.7,10.5,5.3
			c2-4.3,2.8-9.5,2.7-14.2c-0.1-3.7-0.3-9.9-3.2-12.5c-0.8-0.8-2-1-3-0.4c-0.1,0.1-0.3,0.1-0.4,0.2c1.3,0.7,2.5,1.4,3.8,2.2
			c0.9-10.8-10.9-14.4-19.6-12.5c-9.5,2.1-16.9,9.4-19.9,18.5c-1,3.1,3.8,4.4,4.8,1.3c1.9-5.9,6-10.7,11.6-13.4
			c5.9-2.9,18.9-3.7,18.1,6.1c-0.2,2,2.2,3,3.8,2.2c0.1-0.1,0.3-0.1,0.4-0.2c-1-0.1-2-0.3-3-0.4c2.4,2.2,1.9,9.4,1.6,12.4
			c-0.1,1.6-0.4,4.6-1.2,6.1c0,1.7-0.4,2.1-1.2,1.2c-0.5-1-0.8-2.1-0.9-3.3c-0.3-2.5-4.3-2.2-4.8,0c-0.9,3.6-2.2,6.9-4.1,10
			c-0.6,0.9-7.8,10.3-7.8,4.4c0-2.1-2.8-3.3-4.3-1.8c-1.8,1.8-3.6,3.5-5.8,4.8c-1.3,0.8-4.7,3.2-6.1,2.8c-1,0.5-1.1,0.3-0.2-0.5
			c0.6-0.9,1.2-1.9,1.8-2.8c1.5-2.1,3.1-4.1,4.8-6c1.7-1.9,0-4.6-2.4-4.2c-4.1,0.8-8.4,1.6-12.6,0.7c-1.5-0.3-3.9-0.8-4.8-2.1
			c-1.3-0.6-1.3-1,0.1-1.1c0.6-0.7,1.2-1.4,1.8-2.1c4.6-5.5,9.5-10.6,14.7-15.6C58.8,149.7,55.3,146.2,52.9,148.4L52.9,148.4z"/>
	</g>
</g>
<g>
	<path class="st2" d="M40,124c-4.5,0.6-9,0.1-13.3-1.3c-1.4,4.1-5.1,7.4-9.3,8.2c-1.2,0.2-2.7,0.2-3.4-0.8c-0.6-0.7-0.6-1.8-0.5-2.7
		c0.3-2.6,0.9-5.2,1.9-7.6c-1.3,1-2.7,2.1-4.4,2.5c-1.6,0.5-3.6,0.2-4.7-1.1c-1.4-1.6-1-4.1,0.3-5.8s3.3-2.6,5.2-3.5
		c-2.3-2.8-2.5-7.1-0.4-10c0.3-0.5,0.8-1,1.3-1.2c1-0.4,2.1,0.1,2.8,0.9c0.7,0.8,1,1.8,1.3,2.8c1.1,3.3,2.1,6.7,3.2,10
		c-0.2-1.7,0.1-3.5,0.9-5.1c0.5-1.1,1.3-2.1,2.5-2.2c1.7-0.1,2.7,1.9,2.8,3.6c0,1.7-0.5,3.4,0.1,5c0.8,2.3,3.5,3.3,6,3.7
		c2.4,0.5,4.8,0.7,7.3,0.7c1.1,0,2.3,0,3.3,0.4c1,0.5,1.8,1.7,1.3,2.7c-0.4,1-1.6,1.3-2.6,1.5c-3.1,0.5-6.3,0.5-9.5,0.1"/>
	<g>
		<path class="st2" d="M40,121.5c-4.4,0.4-8.4,0.1-12.6-1.3c-1.4-0.4-2.6,0.5-3.1,1.7c-0.9,2.2-4.6,7.5-7.2,5.3
			c-1.8-1.6-0.1-4.8,0.7-6.9c0.7-2-1.9-4.1-3.7-2.8c-1.9,1.4-3.7,4.1-3.8,0.1c-0.1-2.8,0.4-2.5,2.7-3.6c1.2-0.6,1.6-2.4,0.9-3.4
			c-0.9-1.2-2.2-3.2-1.4-4.7c1-1.8,1.4-1,2.3,0.7c1.3,2.5,1.8,5.7,2.6,8.4c0.8,2.6,4.9,2.2,4.9-0.7c0-5.7,0.7-1.7,1-0.3
			c0.2,1,0.2,2,0.6,2.9c0.9,2,2.7,3.3,4.7,4.1c2.4,1,5.3,1.3,7.9,1.4c0.8,0.1,4.5,0,2,0.1c-2.3,0.1-4.4,0-6.6-0.2
			c-3.2-0.4-3.2,4.6,0,5c3.7,0.4,13.7,1.7,14.6-4c1-6.2-7.1-5.5-10.8-5.9c-1.1-0.1-4.8-0.4-5.9-1.3c-2.1-1.7-1-4.6-1.4-6.7
			c-0.4-1.9-1.4-3.7-3.3-4.4c-5.6-2.2-7.7,5.5-7.7,9.4c1.6-0.2,3.3-0.4,4.9-0.7c-1.3-4.2-3-17.7-10.3-15.4
			c-5.9,1.9-5.2,10.9-2.4,14.9c0.3-1.1,0.6-2.3,0.9-3.4c-4.2,2-9.6,6.2-7,11.6c2.7,5.6,9.3,3.3,13.1,0.5c-1.2-0.9-2.4-1.9-3.7-2.8
			c-1.6,4.3-4.6,13.7,2.8,14.3c6.2,0.5,11.2-4.9,13.3-10.1c-1,0.6-2.1,1.2-3.1,1.7c4.6,1.4,9.2,1.9,13.9,1.4
			C43.2,126.2,43.2,121.2,40,121.5L40,121.5z"/>
	</g>
</g>
<g>
	<path class="st2" d="M107,120.3c4.6-1.7,8.9-4.2,12.7-7.4c0.5-0.5,1.1-1,1.2-1.7c0.1-0.7-0.3-1.3-0.7-2c-1.8-3.3-1.6-7.5,0.3-10.7
		c0.3-0.4,0.6-0.8,1.1-1c1-0.3,1.8,0.8,2.3,1.8c1.4,3.2,2.4,6.7,2.8,10.2c2-2,4.2-3.8,6.5-5.4c-1.2-3.5-1.3-7.4-0.1-10.9
		c0.4-1.1,0.8-2.1,1.7-2.9c0.9-0.7,2.2-0.9,3.1-0.3c0.8,0.6,1,1.6,1.2,2.6c0.5,3.3,0.4,6.6-0.2,9.8c2.1-1.4,4.2-2.9,6.2-4.3
		c-0.6,2.8-1.9,5.4-3.7,7.5c1.3,0,2.7,0,3.9,0.4s2.4,1.5,2.5,2.8c0.3,2-1.8,3.7-3.9,3.9c-2,0.3-4.1-0.3-6.1-0.4
		c-4.9-0.1-9.3,2.9-13.3,5.7c3.1-1.4,7-0.4,9.2,2.2c0.7,0.8,1.1,2.1,0.4,2.8c-0.3,0.3-0.7,0.5-1.1,0.6c-2.5,0.9-5.1,1.8-7.7,1.3
		c-1.9-0.3-3.7-1.4-5.6-1.9c-2.7-0.7-5.8,0-8,1.7"/>
	<g>
		<path class="st2" d="M107.6,122.7c4.5-1.8,13.6-5.2,15.4-10.3c1-2.8-1.4-5-1.6-7.8c0.1-0.8,0.2-1.7,0.2-2.5c0.6-1,0.9-0.7,1,1.1
			c1,1.9,1.2,4.8,1.5,6.9c0.3,2,3,2.3,4.2,1.1c1.9-1.8,3.9-3.5,6-5c0.9-0.6,1.5-1.7,1.1-2.8c-0.3-0.9-2-9-0.1-9.6
			c2.6-0.8,1.1,7.1,1,8c-0.3,1.9,1.7,4.2,3.7,2.8c2.1-1.4,4.2-2.9,6.2-4.3c-1.2-0.9-2.4-1.9-3.7-2.8c-0.7,2.6-1.8,4.8-3.4,6.9
			c-1.2,1.6,0.4,3.8,2.2,3.8c1.7-0.4,2,0.3,1,2.2c-1-0.1-2-0.2-3.1-0.3c-1.9-0.1-3.6-0.1-5.4,0.3c-4,0.9-7.4,3.3-10.7,5.6
			c-2.2,1.5-1,5.5,1.9,4.6c1.8-0.6,6.9-0.5,4.8,1.7c-2.1,2.2-6.8-0.4-9-1.1c-3.7-1.1-7.4-0.4-10.6,1.7c-2.7,1.8-0.2,6.1,2.5,4.3
			c5.2-3.4,9.3,0.9,14.7,0.6c2.7-0.2,7.7-1.1,8.9-3.9c3.1-6.9-8.1-9.7-12.7-8.2c0.6,1.5,1.3,3,1.9,4.6c4.5-3.2,8.7-5.7,14.4-5.2
			c3.2,0.3,6.5,0.3,8.8-2.3c4.8-5.6-2.6-9.6-7.5-9.6c0.7,1.3,1.4,2.5,2.2,3.8c1.9-2.5,3.1-5.1,4-8.1c0.5-2-1.8-4.1-3.7-2.8
			c-2.1,1.4-4.2,2.9-6.2,4.3c1.2,0.9,2.4,1.9,3.7,2.8c0.7-4.3,2.3-17.6-5.8-15.8c-6.9,1.5-6.2,12.5-4.7,17.4
			c0.4-0.9,0.8-1.9,1.1-2.8c-2.5,1.8-4.8,3.6-7,5.8c1.4,0.4,2.8,0.7,4.2,1.1c-0.5-3.5-4.6-20.2-10.7-11.6c-2.2,3.1-2.4,7.7-1.2,11.2
			c1,3.2,0.4,3.2-2.7,5.3c-2.6,1.7-5.3,3.1-8.2,4.2C103.3,119,104.6,123.9,107.6,122.7L107.6,122.7z"/>
	</g>
</g>
<g>
	<path class="st3" d="M86.1,143.1c-0.4,4.7-0.8,9.5-2.2,14c-1.4,4.5-4,8.9-8,11.5c-4,2.6-9.4,3.2-13.5,0.8c-4.1-2.5-6-7.6-6-12.4
		s1.7-9.4,3.4-13.9c-5.1,3.5-10.7,7.2-16.9,6.8c-4.1-0.3-8-2.5-10.7-5.6c-1.8-2.1-3.1-4.8-2.9-7.5c0.2-2.5,1.6-4.8,3.3-6.6
		c4-4.3,9.9-6.7,15.7-6.5c-9.8-0.7-18.7-8.4-20.9-18C26.9,103,27,99.8,29,98c1.9-1.6,4.7-1.5,7.1-1.1c6.2,1,12.1,3.3,17.5,6.6
		c-4.3-6.3-8.8-13.4-7.5-20.9c0.4-2.2,1.3-4.4,3.1-5.7c3.4-2.4,8.2-0.6,11.7,1.7c5,3.3,9.4,7.5,12.9,12.4c-1.1-8.2,3-16.8,9.9-21.2
		c1.5-1,3.3-1.8,5.1-1.6c2.7,0.3,4.8,2.6,6.1,5c5.3,9.4,4.3,20.9,3.1,31.6c3.9-5.8,8.7-11.7,15.4-13.5c2-0.5,4.2-0.7,6,0.3
		c3,1.7,3.7,5.8,3.4,9.2c-1,8.9-7,17-15.2,20.5c3.9-3.7,11.1-2.1,13.9,2.5c2.8,4.6,1.6,10.9-2,15c-3.6,4-9,6-14.4,6.5
		c-7,0.7-14.2-1-20.7-3.8"/>
	<g>
		<path class="st3" d="M83.6,143.1c-0.7,9-2.2,23-13.3,25.1c-5.9,1.1-10.2-3-11.1-8.7c-0.9-5.4,1.3-10.8,3.1-15.8
			c0.7-2-1.9-4-3.7-2.8c-7,4.9-16,10-23.5,2.7c-9.5-9.2,4.8-17.5,13.3-17.5c3.3,0,3.1-4.7,0-5c-8-0.9-15.3-6.4-17.9-14.1
			c-1-2.9-2-6.5,2.6-8c1.8-0.6,4.7,0.6,6.5,1.1c4.5,1.2,8.7,3.1,12.7,5.4c2.1,1.2,4.9-1.3,3.4-3.4c-3.6-5.3-11-15.7-6.2-22.2
			c5.6-7.6,19.1,8.3,22,12.2c1.3,1.8,4.9,1.5,4.7-1.3c-0.4-4.7,0.4-9.3,3-13.3c1.3-2.1,3.4-4.6,5.7-5.8c3.7-1.9,6.4-0.3,8.2,3.2
			c4.7,9,3.4,19.9,2.4,29.6c-0.3,2.7,3.4,3.1,4.7,1.3c2.5-3.7,5.3-7.6,9.2-10.1c1.8-1.2,4.8-2.9,7.1-2.5c3.9,0.6,4,4.4,3.8,7.1
			c-0.7,8.4-6.6,15.2-14,18.7c1,1.3,2,2.6,3,3.9c4.8-3.9,11,0.9,11.1,6.2c0.1,5-3.2,9.1-7.5,11.3c-8.8,4.5-19.3,2.1-27.9-1.4
			c-3-1.2-4.3,3.6-1.3,4.8c12.5,5.1,33.7,7.4,40.3-7.9c2.4-5.6,1.7-12.8-3.4-16.6c-4.6-3.5-10.5-3.3-14.9,0.2c-2.4,1.9,0.7,5,3,3.9
			c9.9-4.5,20.9-18.7,15.4-30.1c-2.7-5.7-9.1-5.7-14.2-3.5c-6.2,2.7-10.4,8.2-14.1,13.6c1.6,0.4,3.1,0.8,4.7,1.3
			c0.9-7.7,1.6-15.6,0.1-23.3c-1.1-5.5-3.8-13.1-9.5-15.2c-5.5-2.1-11.3,2.7-14.5,6.7c-4.1,5.1-5.9,11.6-5.3,18.1
			c1.6-0.4,3.1-0.8,4.7-1.3c-5-6.8-18.1-21.7-28-15c-10.5,7.1-1.5,22.8,3.5,30.1c1.1-1.1,2.3-2.3,3.4-3.4c-7.3-4.4-31-14.5-30.1,2.3
			c0.6,12.2,12.3,21.3,23.7,22.6c0-1.7,0-3.3,0-5c-10.3,0-26.6,9.2-20.1,21.6c2.6,4.9,7.7,8.6,13.2,9.4c7.4,1.1,13.9-3,19.7-7
			c-1.2-0.9-2.4-1.9-3.7-2.8c-2.6,7.1-5.1,14.9-2,22.3c2.3,5.3,7.1,8.8,13,8.7c15.7-0.3,19.1-18.1,20.1-30.3
			C88.9,139.9,83.9,139.9,83.6,143.1L83.6,143.1z"/>
	</g>
</g>
<g>
	<g>
		<path class="st4" d="M63.8,118.5c3.2,0,3.2-5,0-5C60.5,113.5,60.5,118.5,63.8,118.5L63.8,118.5z"/>
	</g>
</g>
<g>
	<g>
		<path class="st4" d="M82.5,120.8c3.2,0,3.2-5,0-5C79.3,115.8,79.3,120.8,82.5,120.8L82.5,120.8z"/>
	</g>
</g>
<g>
	<g>
		<path class="st4" d="M69.5,127.3c3.2,0,3.2-5,0-5C66.3,122.3,66.3,127.3,69.5,127.3L69.5,127.3z"/>
	</g>
</g>
</svg>
