<?xml version="1.0" encoding="utf-8"?>
<!-- Generator: Adobe Illustrator 22.1.0, SVG Export Plug-In . SVG Version: 6.00 Build 0)  -->
<svg version="1.1" id="Слой_1" xmlns="http://www.w3.org/2000/svg" xmlns:xlink="http://www.w3.org/1999/xlink" x="0px" y="0px"
	 viewBox="0 0 217 267" style="enable-background:new 0 0 217 267;" xml:space="preserve">
<style type="text/css">
	.st0{fill:#C799C6;}
	.st1{fill:#769B87;}
	.st2{fill:#F3CD9C;}
	.st3{fill:#BE1E2D;}
	.st4{fill:#FFFFFF;}
</style>
<g>
	<g>
		<path class="st0" d="M766.2-432.3c-30.7-53.4-67.3-103.3-108.9-148.8c-0.6,1.4-1.2,2.8-1.8,4.3c23.2,1.3,38.9,22.3,43.4,43.6
			c5.7,26.8-6.5,54.2-17.5,78c-10.7,23.3-22.6,47.4-23.4,73.5c-0.3,9.3,0.2,19.8,6.6,27.3c4.5,5.3,11.2,8.1,16.8,2.9
			c0.8-0.7,1-2.2,0.4-3c-50-71.8-121-125.8-199.6-163c-86.8-41.1-181.4-61.1-276.5-70c-108.5-10.2-217.7-6.9-326.5-5.8
			c-111.9,1.1-223.8,2.3-335.7,3.4c-56,0.6-111.9,1.1-167.9,1.7c-13.7,0.1-38.5-0.6-40.4,18.3c-0.5,5.1,0.9,10.4,1.7,15.4
			c1.2,6.9,2.3,13.8,3.5,20.7c2.3,13.8,4.7,27.6,7,41.4c2.3,13.3,4.5,26.7,6.8,40c0.5,2.7,5.2,2.1,4.9-0.7c-1-8.6-2.1-17.2-3.1-25.8
			c-0.4-3.2-5.4-3.2-5,0c1,8.6,2.1,17.2,3.1,25.8c1.6-0.2,3.3-0.4,4.9-0.7c-4.4-26.2-8.9-52.4-13.3-78.6c-1.1-6.4-2.2-12.9-3.3-19.3
			c-1.1-6.7-4.4-15.8-0.9-22.2c4.5-8.4,17.3-9,25.5-9.1c54-1.2,108.1-1.1,162.2-1.7c108.1-1.1,216.2-2.2,324.4-3.3
			c105-1.1,210.5-4.4,315.4,2.6c96,6.4,192.2,22.5,281.5,59.4c79.1,32.7,152.8,81.3,207.4,148c6.9,8.5,13.5,17.2,19.7,26.2
			c0.1-1,0.3-2,0.4-3c-6.4,6-12.9-7.1-13.9-11.7c-1.4-6.4-1.2-13.6-0.6-20.1c1.2-13.8,5.6-27.2,10.8-40c9.4-23.1,22.3-45,28.1-69.5
			c4.6-19.4,4.1-39.5-5.7-57.3c-8.5-15.5-23-27.1-41.1-28.1c-2.3-0.1-3.1,2.8-1.8,4.3c41.3,45.2,77.5,94.7,108.1,147.8
			C763.5-427,767.8-429.5,766.2-432.3L766.2-432.3z"/>
	</g>
</g>
<g>
	<g>
		<path class="st1" d="M-117.5-141.5c3.2,0,3.2-5,0-5C-120.7-146.5-120.7-141.5-117.5-141.5L-117.5-141.5z"/>
	</g>
</g>
<g id="Слой_2">
	<g>
		<path class="st2" d="M70.7,110.4c-3.6-0.5-7.4-1-10.6,0.6c-2.3,1.1-4.1,3.1-5.6,5.1c-1.8,2.4-3.5,4.9-4.1,7.8
			c-0.7,3.9,0.7,7.8,2.5,11.3c5,9.4,13.6,16.7,23.6,20.3c8,2.8,16.6,3.2,25,3c6.6-0.2,13.2-0.7,19.5-2.7s12.1-5.7,15.8-11.2
			c1.3-1.9,2.3-3.9,3.1-6.1c1.1-2.9,2-6,1.7-9.1c-0.3-2.8-1.5-5.5-3.1-7.8c-3.1-4.3-7.8-7.2-12.8-9c-5-1.8-10.3-2.5-15.5-3
			c-10.8-1.1-21.6-1.4-32.4-0.9c-4.4,0.2-8.9,0.5-13.2,1.6"/>
		<g>
			<path class="st2" d="M70.7,107.9c-7.9-1.1-13.4,0.4-18.4,6.9c-5.1,6.7-5.7,13.3-2,20.9c7.4,14.8,22.4,23.3,38.5,24.9
				c15.8,1.6,36.6,0.9,47.9-11.9c4.9-5.5,8.8-14.3,7-21.7c-1.8-7.7-8.5-13.2-15.6-16.2c-9.4-3.9-20.4-4.3-30.4-4.7
				c-11.2-0.5-22.9-0.8-33.9,1.7c-3.1,0.7-1.8,5.5,1.3,4.8c9.6-2.2,19.9-1.9,29.7-1.6c8.9,0.3,18.1,0.6,26.7,2.9
				c10.2,2.8,20.1,10.4,16.5,22.1c-2.7,8.6-9.4,14.5-17.8,17.3c-8.3,2.8-17.4,2.9-26.1,2.6c-9.2-0.3-18.2-2.2-26-7.4
				c-6.4-4.3-12.8-11.1-15-18.7c-1.5-5.2,0.6-9.4,3.9-13.2c3.8-4.5,8.1-4.5,13.5-3.8C73.9,113.3,73.9,108.3,70.7,107.9L70.7,107.9z"
				/>
		</g>
	</g>
</g>
<g>
	<path class="st3" d="M73.3,122.8c-0.9,1.7-3.6,1.6-4.9,0.2c-1.4-1.3-1.7-3.4-1.8-5.3c0-0.7,0.3-1.6,0.9-1.4c-1.5-0.6-3-1.4-4-2.7
		c-1.5-2.1-1-5.4,1.2-6.7c2.2-1.3,5.6,0.3,5.8,2.8c-0.4-1.9,1.2-3.9,3.2-4.2c1.9-0.3,3.9,0.7,5.3,2.1c1.3,1.4,2.2,3.3,3,5
		c-0.4-2.3-0.8-4.6-0.2-6.8s2.5-4.2,4.8-4.2c3,0,4.8,3.3,6,6.1c-0.5,0.4-1.1-0.3-1.3-0.9c-0.8-3.1,0.4-6.5,3-8.4s6.3-1.9,8.8,0
		c2.5,1.9,3.5,5.6,2.2,8.4c1.9-1.9,4.1-3.6,6.6-4.3c2.6-0.7,5.5-0.3,7.5,1.6c1.9,1.8,2.4,5.2,0.7,7.2c2.4-0.8,5.2-0.6,7.1,1.1
		s2.6,4.7,1.2,6.8c-0.2,0.3-0.5,0.6-0.5,1c0,0.3,0.2,0.6,0.4,0.9c2.2,3.7,0.4,9.2-3.6,10.8c-0.8,0.3-1.7,0.5-2.4,0.1
		s-1.2-1.4-0.7-2.1c1.2,2.2,0.7,5-0.8,7c-1.5,2-3.8,3.3-6.2,3.9c-3.1,0.9-6.7,0.8-9.3-1c-2.7-1.8-4-5.7-2.3-8.5
		c-2.7,3.9-7.6,6.2-12.3,5.6c-4.7-0.6-9-4-10.6-8.4c0.2,3.2-2.2,6.3-5.3,6.9c-3.1,0.6-6.5-1.4-7.5-4.4s0.6-6.6,3.5-7.9"/>
	<g>
		<path class="st3" d="M71.5,121c-1.6-0.2-2.5-1.1-2.7-2.5c1.5-0.8,1.8-3.6,0-4.3c-0.8-0.3-1.5-0.6-2.2-1.1c-2.3-3-1.8-3.8,1.5-2.7
			c0.7,2.7,5,2.2,4.9-0.7c2.7-1.4,4.6-0.9,5.5,1.6c0.5,0.9,0.9,1.8,1.3,2.7c1.3,2.8,5,0.7,4.6-1.9c-0.4-1.4-0.5-2.7-0.3-4.1
			c-0.3-2.1,1.1-3.1,4-2.9c1.1,0.6,1.9,3,2.3,4.1c0.7-1.3,1.4-2.5,2.2-3.8c-0.3,0-0.5,0-0.8-0.1c0.7,0.4,1.4,0.8,2.2,1.2
			c-4.1-6.7,12.4-10.7,8.9-0.3c-0.8,2.5,2.5,4.1,4.2,2.4c1.6-1.5,3.4-3.1,5.5-3.6c2.5-0.6,8.2,0.4,5.4,5.1c-1.2,1.9,0.7,4.2,2.8,3.7
			c3.3-1.2,5.1,0.2,5.6,4.2c-0.2,0.3-0.3,0.7-0.5,1c0,0.8-0.2,1.5-0.1,2.4c0.2,1.4,1.1,2.5,0.9,3.9c-0.2,2.1-2.4,3-2.6,4.8
			c-1.6,0.2-3.3,0.4-4.9,0.7c4.1,11-17.7,10-14,2.1c1.4-3-2.4-5.1-4.3-2.5c-5.5,7.1-15.3,4.9-18.6-2.8c-1.1-2.4-4.5-1-4.7,1.3
			c-0.4,8.8-13.2,1.3-5.5-3.4c2.7-1.7,0.2-6-2.5-4.3c-5.9,3.6-6.9,12-0.5,15.8c6.4,3.8,13.2-1.3,13.6-8.1c-1.6,0.4-3.1,0.8-4.7,1.3
			c5.1,11.7,19.8,12.6,27.3,2.8c-1.4-0.8-2.9-1.7-4.3-2.5c-3.2,7,2.3,13.7,9.7,13.8c7.8,0.1,16.7-6.1,13.5-14.7
			c-1-2.7-4.6-2.2-4.9,0.7c-0.5,4.1,3.6,5.6,6.9,4.1c3.9-1.7,6.1-6.1,5.7-10.2c-0.1-0.9-0.5-1.8-0.6-2.7c-0.1-1-0.1-0.9,0.1-2.2
			c0.3-2.1,0.6-3.6-0.3-5.6c-2-4.6-7.1-5.7-11.6-4.6c0.9,1.2,1.9,2.4,2.8,3.7c2.7-4.4,1-9.9-3.8-12c-5.5-2.4-11,0.7-14.9,4.5
			c1.4,0.8,2.8,1.6,4.2,2.4c2.7-8-5-15.5-12.9-12.1c-4.8,2-10.2,14.3-2.2,14.9c2.1,0.2,2.8-2.2,2.2-3.8c-1.8-4.1-5.3-8.8-10.4-6.9
			c-5.8,2.1-5.5,8.8-4.7,13.8c1.5-0.6,3-1.3,4.6-1.9c-1.9-4-4.7-8.5-9.7-8.4c-3.8,0.1-6.5,3-6.4,6.7c1.6-0.2,3.3-0.4,4.9-0.7
			c-1.2-4.8-7.5-7-11-3c-4.1,4.8-0.5,10.3,4.3,12.4c0-1.4,0-2.9,0-4.3c-6.7,3.6,2.2,17.4,8.8,10.4C77.3,122.2,73.7,118.6,71.5,121
			L71.5,121z"/>
	</g>
</g>
<g>
	<g>
		<path class="st4" d="M82.7,106.1c-0.8-2.2,2.2-2.9,3.7-3.2c0.8-0.1,0.5-1.3-0.3-1.2c-1.3,0.2-2.8,0.5-3.8,1.5
			c-0.8,0.8-1.2,2.1-0.8,3.2C81.8,107.1,83,106.8,82.7,106.1L82.7,106.1z"/>
	</g>
</g>
<g>
	<g>
		<path class="st4" d="M68,129.1c-0.7,3,1.4,6,4.5,6.3c0.8,0.1,0.8-1.2,0-1.3c-2.2-0.3-3.8-2.6-3.3-4.8
			C69.4,128.7,68.2,128.3,68,129.1L68,129.1z"/>
	</g>
</g>
<g>
	<g>
		<path class="st4" d="M90.1,119.2c-1.6-0.8-1-2.6,0.3-3.4c0.7-0.5,1.7-0.6,2.5-0.7c1.6-0.2,4.2-0.4,4.5,1.8
			c0.1,0.8,1.3,0.5,1.2-0.3c-0.5-3.6-5.8-3.2-8.3-2.1c-2.3,1-3.8,4.5-0.9,5.8C90.2,120.6,90.9,119.5,90.1,119.2L90.1,119.2z"/>
	</g>
</g>
<g>
	<g>
		<path class="st4" d="M69,111.7c-0.7-0.5,0.8-0.8,0.9-0.9c0.5-0.1,1-0.2,1.5-0.2c0.9-0.1,1.7,0,2.6,0.1c0.8,0.1,0.8-1.2,0-1.3
			c-1.6-0.2-3.9-0.3-5.4,0.5c-1,0.5-1.4,1.8-0.5,2.6C68.7,113.1,69.6,112.2,69,111.7L69,111.7z"/>
	</g>
</g>
<g>
	<g>
		<path class="st4" d="M103.8,137.4c1.1,2.7,3.8,4.4,6.7,4.2c0.8-0.1,0.8-1.3,0-1.3c-2.3,0.2-4.6-1.1-5.5-3.3
			C104.7,136.3,103.4,136.6,103.8,137.4L103.8,137.4z"/>
	</g>
</g>
<g>
	<g>
		<path class="st4" d="M124.3,128.7c1.5,0.5,2.9-0.6,3.5-1.9c0.9-1.7,0.9-3.6,0.8-5.5c0-0.8-1.3-0.8-1.2,0c0.1,1.2,0.1,2.3-0.1,3.5
			c-0.2,1.1-1.1,3.3-2.6,2.8C123.8,127.2,123.5,128.4,124.3,128.7L124.3,128.7z"/>
	</g>
</g>
<g>
	<g>
		<path class="st4" d="M109.3,104.5c1.8-1,3.8-0.8,5.4,0.3c0.7,0.5,1.3-0.6,0.6-1.1c-2-1.4-4.5-1.5-6.7-0.3
			C107.9,103.8,108.6,104.9,109.3,104.5L109.3,104.5z"/>
	</g>
</g>
<g>
	<g>
		<path class="st4" d="M97.5,122.5c1.9-2.5,5.5-2.8,7.9-0.9c0.6,0.5,1.3-0.6,0.6-1.1c-3-2.3-7.3-1.6-9.6,1.4
			C95.9,122.5,97,123.2,97.5,122.5L97.5,122.5z"/>
	</g>
</g>
<g>
	<g>
		<path class="st4" d="M76.4,120.2c-2.4-0.5-1.8,3-1.3,4.2c1,2.2,3.2,3.7,5.6,3.8c0.8,0.1,0.8-1.2,0-1.2c-1.4-0.1-2.7-0.8-3.6-1.8
			c-0.5-0.5-0.8-1.1-1.1-1.8c-0.1-0.3-0.5-2.1,0-2C76.8,121.6,77.2,120.3,76.4,120.2L76.4,120.2z"/>
	</g>
</g>
</svg>
