<?xml version="1.0" encoding="utf-8"?>
<!-- Generator: Adobe Illustrator 22.1.0, SVG Export Plug-In . SVG Version: 6.00 Build 0)  -->
<svg version="1.1" id="Слой_1" xmlns="http://www.w3.org/2000/svg" xmlns:xlink="http://www.w3.org/1999/xlink" x="0px" y="0px"
	 viewBox="0 0 217 267" style="enable-background:new 0 0 217 267;" xml:space="preserve">
<style type="text/css">
	.st0{fill:#C799C6;}
	.st1{fill:#769B87;}
	.st2{fill:#ED1C24;}
	.st3{fill:#8DC63F;}
	.st4{fill:#FFFFFF;}
</style>
<g>
	<g>
		<path class="st0" d="M766.2-432.3c-30.7-53.4-67.3-103.3-108.9-148.8c-0.6,1.4-1.2,2.8-1.8,4.3c23.2,1.3,38.9,22.3,43.4,43.6
			c5.7,26.8-6.5,54.2-17.5,78c-10.7,23.3-22.6,47.4-23.4,73.5c-0.3,9.3,0.2,19.8,6.6,27.3c4.5,5.3,11.2,8.1,16.8,2.9
			c0.8-0.7,1-2.2,0.4-3c-50-71.8-121-125.8-199.6-163c-86.8-41.1-181.4-61.1-276.5-70c-108.5-10.2-217.7-6.9-326.5-5.8
			c-111.9,1.1-223.8,2.3-335.7,3.4c-56,0.6-111.9,1.1-167.9,1.7c-13.7,0.1-38.5-0.6-40.4,18.3c-0.5,5.1,0.9,10.4,1.7,15.4
			c1.2,6.9,2.3,13.8,3.5,20.7c2.3,13.8,4.7,27.6,7,41.4c2.3,13.3,4.5,26.7,6.8,40c0.5,2.7,5.2,2.1,4.9-0.7c-1-8.6-2.1-17.2-3.1-25.8
			c-0.4-3.2-5.4-3.2-5,0c1,8.6,2.1,17.2,3.1,25.8c1.6-0.2,3.3-0.4,4.9-0.7c-4.4-26.2-8.9-52.4-13.3-78.6c-1.1-6.4-2.2-12.9-3.3-19.3
			c-1.1-6.7-4.4-15.8-0.9-22.2c4.5-8.4,17.3-9,25.5-9.1c54-1.2,108.1-1.1,162.2-1.7c108.1-1.1,216.2-2.2,324.4-3.3
			c105-1.1,210.5-4.4,315.4,2.6c96,6.4,192.2,22.5,281.5,59.4c79.1,32.7,152.8,81.3,207.4,148c6.9,8.5,13.5,17.2,19.7,26.2
			c0.1-1,0.3-2,0.4-3c-6.4,6-12.9-7.1-13.9-11.7c-1.4-6.4-1.2-13.6-0.6-20.1c1.2-13.8,5.6-27.2,10.8-40c9.4-23.1,22.3-45,28.1-69.5
			c4.6-19.4,4.1-39.5-5.7-57.3c-8.5-15.5-23-27.1-41.1-28.1c-2.3-0.1-3.1,2.8-1.8,4.3c41.3,45.2,77.5,94.7,108.1,147.8
			C763.5-427,767.8-429.5,766.2-432.3L766.2-432.3z"/>
	</g>
</g>
<g>
	<g>
		<path class="st1" d="M-117.5-141.5c3.2,0,3.2-5,0-5C-120.7-146.5-120.7-141.5-117.5-141.5L-117.5-141.5z"/>
	</g>
</g>
<g id="Слой_2">
	<g>
		<path class="st2" d="M76.5,84.7c-4.2,1.5-7.4,4.9-10.3,8.4c-3.1,3.7-6.1,7.7-7.9,12.2c-2,5-2.4,10.5-1.9,15.8
			c1.2,13.7,8.2,26.5,17.7,36.4c9.5,10,21.3,17.4,33.6,23.6c2.5,1.3,5.1,2.5,7.8,3.1c7.2,1.5,14.8-1.8,20-7
			c5.2-5.2,8.4-12.1,10.8-19.1c3.1-8.7,5.3-17.8,6-27c1-11.5-0.5-23.6-7-33.1c-3.7-5.4-8.9-9.6-14.4-13c-3.1-2-6.5-3.7-10-4.7
			c-7.6-2.2-15.7-0.9-23.4,0.7c-7.8,1.6-15.6,3.5-23.3,5.5"/>
		<g>
			<path class="st2" d="M75.2,82.6c-8.6,3.6-16.1,13.6-19.4,22.1c-4,10.6-2.1,22.9,2.2,33c8.6,20.9,27.4,34.8,46.9,44.9
				c9.6,4.9,18.9,6.4,28.2-0.1c8.6-5.9,13-15.8,16.2-25.4c6.7-19.9,10.4-46-4.2-63.4c-7.1-8.5-18.3-15.8-29.5-16.8
				c-13.9-1.3-28.7,4-42.1,7.3c-3.1,0.8-1.8,5.6,1.3,4.8c10-2.5,20-5.3,30.2-6.7c10.6-1.5,19.4,1,28,7.2
				c17.7,12.7,19.3,34,14.9,53.8c-3.5,16.1-14,46.6-36.3,37.1c-17.2-7.4-34.6-19.6-44.6-35.8c-5.6-9-9.2-19.8-8.3-30.6
				c0.9-10.4,9.1-22.9,18.9-27.1C80.7,85.6,78.2,81.3,75.2,82.6L75.2,82.6z"/>
		</g>
	</g>
	<g>
		<g>
			<path class="st2" d="M80.3,85c3.2,0,3.2-5,0-5C77,80,77,85,80.3,85L80.3,85z"/>
		</g>
	</g>
	<g>
		<path class="st3" d="M73.8,93.2C67.7,96.4,59.6,95,54.9,90c-1.7-1.8-3-4.4-2.1-6.7c0.4-1.1,1.3-2,2.2-2.7
			c4.8-3.6,11.7-2.9,17.4-0.9c-1.9-2-2.7-5.1-2.1-7.8c0.7-2.7,2.8-5,5.4-5.9c3.3-1.1,7-0.1,9.8,2c2.8,2.1,4.7,5.1,6.3,8.2
			c0-3.3,0.3-6.7,1.6-9.7c1.3-3,3.9-5.7,7.1-6.3c3-0.6,6.3,0.6,8.4,2.8s3.3,5.3,3.4,8.4c0.2,4.5-1.6,9.1-4.8,12.3
			c-3,2.9-7.1,4.6-11.1,6c-9.6,3.3-19.7,5.5-29.8,4.2"/>
		<g>
			<path class="st3" d="M72.5,91.1c-4.3,2-13,2.1-15.8-2.8c-1.2-2.1-1.3-5.1,0.8-6.3c1.5-0.9,3-1.2,4.7-1.3c3.3-0.3,6.4,0.5,9.5,1.5
				c2.6,0.9,3.8-2.4,2.4-4.2c-4.6-5.8,1.9-11.6,7.8-9.1c3.7,1.6,5.9,5.1,7.7,8.6c1.2,2.2,4.6,1.1,4.7-1.3c0.1-3.3,0.2-6.8,1.9-9.7
				c2.3-4,7.5-5.3,11-1.8c5.7,5.8,1.8,15.4-4,19.2c-10,6.5-24.9,8.7-36.4,7.4c-3.2-0.4-3.2,4.6,0,5c10.8,1.2,21.8-1,31.9-4.8
				c8.3-3.1,15.3-8.5,16.2-17.9c0.7-7.9-4.7-16.8-13.5-16.1c-9.3,0.8-11.8,10.9-12,18.6c1.6-0.4,3.1-0.8,4.7-1.3
				c-3.7-6.8-10.6-14.3-19.2-11.2c-7.8,2.8-8.9,11.8-4.2,17.7c0.8-1.4,1.6-2.8,2.4-4.2c-5.2-1.7-11.2-2.6-16.4-0.4
				c-4,1.7-7.5,5.3-6.4,10c2.6,10.4,16.5,12.3,24.7,8.6C77.9,94,75.4,89.7,72.5,91.1L72.5,91.1z"/>
		</g>
	</g>
	<g>
		<g>
			<path class="st4" d="M63.2,99.7c-4.9,3.5-5.3,9.1-5.6,14.8c-0.4,6.9-0.1,13.8,4.3,19.5c1,1.3,3.1,0,2.2-1.3
				c-3.3-4.3-4.2-9.3-4.1-14.7c0-5.3-0.4-12.7,4.5-16.2C65.7,100.9,64.5,98.7,63.2,99.7L63.2,99.7z"/>
		</g>
	</g>
</g>
</svg>
